<svg id="Camada_1" data-name="Camada 1" xmlns="http://www.w3.org/2000/svg" viewBox="0 0 189 61"><defs><style>.cls-1{fill:#8f323b;}.cls-2{fill:#fff;}</style></defs><title>Prancheta 1</title><path class="cls-1" d="M14.74,44.87h0l1.42-3.22a.43.43,0,0,1,.44-.3h.62a.35.35,0,0,1,.38.38v6.9a.35.35,0,0,1-.38.39h-.9a.35.35,0,0,1-.38-.39v-2.9l-.83,1.85a.27.27,0,0,1-.26.17H14.6a.27.27,0,0,1-.26-.17l-.81-1.85v2.9a.35.35,0,0,1-.39.39h-.9a.35.35,0,0,1-.39-.39v-6.9a.35.35,0,0,1,.39-.38h.64a.43.43,0,0,1,.44.3Z"/><path class="cls-1" d="M22.81,49H21.67a.33.33,0,0,1-.36-.3l-.17-1.32H20.07l-.14,1.32a.32.32,0,0,1-.36.3H18.42c-.23,0-.33-.14-.29-.36l1.27-7a.38.38,0,0,1,.42-.34h1.55a.4.4,0,0,1,.43.34l1.3,7C23.14,48.87,23,49,22.81,49Zm-2.24-5.46-.31,2.3h.68l-.33-2.3Z"/><path class="cls-1" d="M28.28,41.74v6.9a.35.35,0,0,1-.39.39h-.81a.45.45,0,0,1-.45-.29l-1.33-3.08v3a.35.35,0,0,1-.39.39H24a.35.35,0,0,1-.39-.39v-6.9a.35.35,0,0,1,.39-.38h.69a.44.44,0,0,1,.45.29l1.46,3.42V41.74a.35.35,0,0,1,.38-.38h.9A.35.35,0,0,1,28.28,41.74Z"/><path class="cls-1" d="M29.45,49a.35.35,0,0,1-.39-.38v-6.9a.35.35,0,0,1,.39-.39h1.47c1.87,0,2.56,1.27,2.56,3.77S32.82,49,31,49Zm1.47-1.63c.66,0,.8-1,.8-2.26S31.6,43,31,43h-.19v4.39Z"/><path class="cls-1" d="M38.28,49H37.13a.33.33,0,0,1-.36-.3L36.6,47.4H35.54l-.14,1.32A.32.32,0,0,1,35,49H33.89c-.23,0-.33-.14-.29-.36l1.27-7a.38.38,0,0,1,.42-.34h1.55a.4.4,0,0,1,.43.34l1.3,7C38.61,48.87,38.51,49,38.28,49ZM36,43.55l-.31,2.3h.68l-.33-2.3Z"/><path class="cls-1" d="M45.06,41.35a.35.35,0,0,1,.39.38v4.73c0,1.81-.65,2.7-2.19,2.7s-2.2-.88-2.2-2.7V41.74a.35.35,0,0,1,.39-.38h1a.35.35,0,0,1,.38.38v5.12c0,.5.11.7.44.7s.43-.21.43-.7V41.74a.35.35,0,0,1,.39-.38Z"/><path class="cls-1" d="M49.12,44.87h0l1.42-3.22a.43.43,0,0,1,.44-.3h.62a.35.35,0,0,1,.39.38v6.9a.35.35,0,0,1-.39.39h-.9a.35.35,0,0,1-.38-.39v-2.9l-.83,1.85a.27.27,0,0,1-.26.17H49a.27.27,0,0,1-.26-.17l-.81-1.85v2.9a.35.35,0,0,1-.39.39h-.9a.35.35,0,0,1-.39-.39v-6.9a.35.35,0,0,1,.39-.38h.64a.43.43,0,0,1,.44.3Z"/><path class="cls-1" d="M59.18,49H58a.33.33,0,0,1-.36-.3L57.5,47.4H56.44l-.14,1.32a.32.32,0,0,1-.36.3H54.79c-.23,0-.33-.14-.29-.36l1.27-7a.38.38,0,0,1,.42-.34h1.55a.4.4,0,0,1,.43.34l1.3,7C59.51,48.87,59.41,49,59.18,49Zm-2.24-5.46-.31,2.3h.68L57,43.55Z"/><path class="cls-1" d="M60.36,41.35h1a.35.35,0,0,1,.38.38v5.68h1.67a.3.3,0,0,1,.33.33v.95a.3.3,0,0,1-.33.33h-3a.35.35,0,0,1-.39-.39v-6.9A.35.35,0,0,1,60.36,41.35Z"/><path class="cls-1" d="M64,45.2c0-2.15.35-4,2.32-4s2.31,1.84,2.31,4-.36,3.95-2.38,3.95S64,47.24,64,45.2Zm3.84-4.37h-.88a.27.27,0,0,1-.26-.15L66.29,40l-.36.66a.27.27,0,0,1-.26.15h-.88c-.18,0-.24-.12-.15-.26l.69-1.2a.28.28,0,0,1,.26-.15H67a.28.28,0,0,1,.26.15l.69,1.2C68,40.71,68,40.83,67.8,40.83Zm-1,4.37c0-1.63,0-2.38-.54-2.38s-.57.75-.57,2.38.1,2.34.54,2.34S66.83,47,66.83,45.2Z"/><path class="cls-1" d="M70.3,48.91,69.58,50a.21.21,0,0,1-.31.07L69,49.84a.2.2,0,0,1-.07-.31l.37-.57a.76.76,0,0,1-.45-.75.86.86,0,1,1,1.72,0A1.28,1.28,0,0,1,70.3,48.91Z"/><path class="cls-1" d="M75.44,46.32h0l.25-2,.39-2.65a.32.32,0,0,1,.36-.3h1.19c.23,0,.33.14.29.36l-1.35,7a.38.38,0,0,1-.42.34H74.73a.4.4,0,0,1-.43-.34l-1.39-7c0-.22.06-.36.29-.36h1.19a.33.33,0,0,1,.36.3l.43,2.71Z"/><path class="cls-1" d="M82.23,49H81.09a.33.33,0,0,1-.36-.3l-.17-1.32H79.49l-.14,1.32A.32.32,0,0,1,79,49H77.84c-.23,0-.33-.14-.29-.36l1.27-7a.38.38,0,0,1,.42-.34h1.55a.4.4,0,0,1,.43.34l1.3,7C82.56,48.87,82.46,49,82.23,49ZM80,43.55l-.31,2.3h.68L80,43.55Z"/><path class="cls-1" d="M85.92,44.87h0l1.42-3.22a.43.43,0,0,1,.44-.3h.62a.35.35,0,0,1,.38.38v6.9a.35.35,0,0,1-.38.39h-.9a.35.35,0,0,1-.38-.39v-2.9l-.82,1.85a.27.27,0,0,1-.26.17h-.25a.26.26,0,0,1-.26-.17l-.81-1.85v2.9a.35.35,0,0,1-.38.39h-.9a.35.35,0,0,1-.38-.39v-6.9a.35.35,0,0,1,.38-.38h.64a.43.43,0,0,1,.44.3Z"/><path class="cls-1" d="M89.47,45.2c0-2.15.35-4,2.32-4s2.31,1.84,2.31,4-.36,3.95-2.38,3.95S89.47,47.24,89.47,45.2Zm2.87,0c0-1.63,0-2.38-.54-2.38s-.57.75-.57,2.38.1,2.34.54,2.34S92.34,47,92.34,45.2Z"/><path class="cls-1" d="M94.47,48.57V47.36c0-.09.05-.18.21-.12a3.39,3.39,0,0,0,1.25.3c.66,0,.84-.31.83-.63,0-.48-.45-.75-1.23-1.57a2.68,2.68,0,0,1-1-2c0-1.13.65-2.11,2.34-2.11.41,0,1.33.19,1.33.58V43c0,.07-.07.19-.24.12a2,2,0,0,0-1-.33c-.52,0-.74.24-.74.59s.3.57,1,1.23c.94.86,1.29,1.41,1.29,2.28a2.1,2.1,0,0,1-2.38,2.21C95.4,49.15,94.47,49,94.47,48.57Z"/><path class="cls-1" d="M101.44,41.35h3.13a.3.3,0,0,1,.33.33v.95a.3.3,0,0,1-.33.33h-1.77v1.43h1.4a.3.3,0,0,1,.33.33v.94a.3.3,0,0,1-.33.33h-1.4v2.66a.35.35,0,0,1-.38.39h-1a.35.35,0,0,1-.39-.39l0-6.9A.35.35,0,0,1,101.44,41.35Z"/><path class="cls-1" d="M109.36,49h-1.14a.33.33,0,0,1-.36-.3l-.17-1.32h-1.07l-.14,1.32a.32.32,0,0,1-.36.3H105c-.23,0-.33-.14-.29-.36l1.26-7a.38.38,0,0,1,.42-.34h1.55a.4.4,0,0,1,.43.34l1.3,7C109.69,48.87,109.59,49,109.36,49Zm-2.25-5.46-.31,2.3h.68l-.33-2.3Z"/><path class="cls-1" d="M110.54,41.35h1a.35.35,0,0,1,.38.38v5.68h1.67a.3.3,0,0,1,.33.33v.95a.3.3,0,0,1-.33.33h-3a.35.35,0,0,1-.39-.39v-6.9A.35.35,0,0,1,110.54,41.35Z"/><path class="cls-1" d="M118.94,49h-1.14a.33.33,0,0,1-.36-.3l-.17-1.32H116.2l-.14,1.32a.32.32,0,0,1-.36.3h-1.14c-.23,0-.33-.14-.29-.36l1.26-7a.38.38,0,0,1,.42-.34h1.55a.4.4,0,0,1,.43.34l1.3,7C119.27,48.87,119.17,49,118.94,49Zm-2.25-5.46-.31,2.3h.68l-.33-2.3Z"/><path class="cls-1" d="M123.92,49h-1a.39.39,0,0,1-.42-.31l-.68-2.17h-.32v2.09a.35.35,0,0,1-.38.39h-1a.35.35,0,0,1-.39-.39l0-6.91a.35.35,0,0,1,.38-.39h1.64c.9,0,2.3.29,2.3,2.56a2.63,2.63,0,0,1-.81,2.08l.92,2.6C124.3,48.84,124.2,49,123.92,49Zm-2.43-4h.31c.46,0,.59-.52.59-1s-.15-1-.58-1h-.32Z"/><path class="cls-1" d="M127.14,49a.35.35,0,0,1-.39-.38v-6.9a.35.35,0,0,1,.39-.39h1.47c1.87,0,2.56,1.27,2.56,3.77S130.51,49,128.66,49Zm1.47-1.63c.66,0,.8-1,.8-2.26s-.13-2.13-.77-2.13h-.19v4.39Z"/><path class="cls-1" d="M136,49h-1.14a.33.33,0,0,1-.36-.3l-.16-1.32h-1.07l-.14,1.32a.32.32,0,0,1-.36.3h-1.14c-.23,0-.33-.14-.29-.36l1.27-7a.38.38,0,0,1,.42-.34h1.55a.4.4,0,0,1,.43.34l1.3,7C136.29,48.87,136.2,49,136,49Zm-2.24-5.46-.31,2.3h.68l-.33-2.3Z"/><path class="cls-1" d="M138.56,48.57V47.36c0-.09.06-.18.21-.12a3.38,3.38,0,0,0,1.25.3c.66,0,.84-.31.82-.63,0-.48-.45-.75-1.23-1.57a2.68,2.68,0,0,1-1-2c0-1.13.65-2.11,2.34-2.11.41,0,1.33.19,1.33.58V43c0,.07-.07.19-.24.12a2,2,0,0,0-1-.33c-.52,0-.74.24-.74.59s.3.57,1,1.23c.94.86,1.29,1.41,1.29,2.28a2.1,2.1,0,0,1-2.38,2.21C139.48,49.15,138.56,49,138.56,48.57Z"/><path class="cls-1" d="M147.14,41.35a.35.35,0,0,1,.38.38v4.73c0,1.81-.65,2.7-2.19,2.7s-2.2-.88-2.2-2.7V41.74a.35.35,0,0,1,.39-.38h1a.35.35,0,0,1,.38.38v5.12c0,.5.11.7.44.7s.43-.21.43-.7V41.74a.35.35,0,0,1,.38-.38Z"/><path class="cls-1" d="M152.5,49h-1.14a.33.33,0,0,1-.36-.3l-.17-1.32h-1.07l-.14,1.32a.32.32,0,0,1-.36.3h-1.14c-.23,0-.33-.14-.29-.36l1.26-7a.38.38,0,0,1,.42-.34h1.55a.4.4,0,0,1,.43.34l1.3,7C152.83,48.87,152.73,49,152.5,49Zm-2.25-5.46-.31,2.3h.68l-.33-2.3Z"/><path class="cls-1" d="M155.66,49a.35.35,0,0,1-.38-.39v-6.9a.35.35,0,0,1,.38-.38h1a.35.35,0,0,1,.38.38v6.9a.35.35,0,0,1-.38.39Z"/><path class="cls-1" d="M158.22,49a.35.35,0,0,1-.38-.38v-6.9a.35.35,0,0,1,.38-.39h1.47c1.87,0,2.56,1.27,2.56,3.77S161.58,49,159.73,49Zm1.47-1.63c.66,0,.8-1,.8-2.26s-.13-2.13-.77-2.13h-.19v4.39Z"/><path class="cls-1" d="M162.91,48.63l0-6.9a.35.35,0,0,1,.38-.38h3.06a.3.3,0,0,1,.33.33v.95a.3.3,0,0,1-.33.33h-1.71v1.43h1.52a.3.3,0,0,1,.33.33v.94a.3.3,0,0,1-.33.33h-1.52v1.44h1.62a.3.3,0,0,1,.33.33v.95a.3.3,0,0,1-.33.33h-3A.35.35,0,0,1,162.91,48.63Z"/><path class="cls-1" d="M167.71,49a.35.35,0,0,1-.38-.39v-6.9a.35.35,0,0,1,.38-.38h1a.35.35,0,0,1,.38.38v6.9a.35.35,0,0,1-.38.39Z"/><path class="cls-1" d="M174.28,49h-1.14a.33.33,0,0,1-.36-.3l-.17-1.32h-1.07l-.14,1.32a.32.32,0,0,1-.36.3h-1.14c-.23,0-.33-.14-.29-.36l1.26-7a.38.38,0,0,1,.42-.34h1.55a.4.4,0,0,1,.43.34l1.3,7C174.61,48.87,174.51,49,174.28,49ZM172,43.55l-.31,2.3h.68l-.33-2.3Z"/><path class="cls-1" d="M175.49,46.63l-.29-3.42c0-.17,0-.32,0-.48V41.56a.35.35,0,0,1,.38-.39h1.1a.35.35,0,0,1,.38.38V42.7c0,.18,0,.35,0,.53l-.31,3.4a.27.27,0,0,1-.29.26h-.66A.27.27,0,0,1,175.49,46.63Zm-.24,1.56a.87.87,0,1,1,.87.88A.87.87,0,0,1,175.24,48.19Z"/><path class="cls-2" d="M11.2,36.67c0-1.9,3.32-8.43,3.94-9.67a19.65,19.65,0,0,1-2.31-.45,1.67,1.67,0,0,1-1.49-1.73c0-.48,1.07-.31,1.55-.35,1.24-.1,2.9,0,3.59-.66a31.79,31.79,0,0,0,3.42-6.63,26.65,26.65,0,0,1-3.52.66,2.47,2.47,0,0,1-2.18-2,.84.84,0,0,1,.73-.83,59.78,59.78,0,0,1,6.6-1c.52-.59,1-1.35,1.62-1.35s1.07,1.14,2.59,1c6.39-.55,10-.69,13.58-.21,1.24.17,1.66.62,1.31,1.42a83.49,83.49,0,0,0-14.16,1,6.29,6.29,0,0,0-1.76.41,39.38,39.38,0,0,0-4.15,6.84c-.28.55-.28,1,.52,1,1,0,5.49-.52,5.49-.52,1.35-.1,2.18.14,2.18,1,0,.31-.28.31-.55.35-1.42.21-6.11,1.24-8.6,1.69a1.46,1.46,0,0,0-1.11.52,103.62,103.62,0,0,0-5,10.64c-.21.52-.35.79-.76.79C11.82,38.71,11.2,37,11.2,36.67Z"/><path class="cls-2" d="M24.84,34.08c0-3.28,4.21-9.4,8.71-9.4,1.31,0,2.18,1.73,1.69,1.9a12.33,12.33,0,0,0-6.39,4.15c-1.9,2.49-2.14,4.49.83,1.87a30.68,30.68,0,0,0,4.11-4.15.86.86,0,0,1,.69-.31c.83,0,2,1.11,1.69,1.59a9.42,9.42,0,0,0-1.45,3.63c0,.41.17.66.52.66.79,0,2.25-1.28,2.8-1.9l.21-.21c.14-.14.9,0,.59.38l-.28.35c-1,1.31-2.73,3-4.32,3-1.35,0-2.21-1.31-1.55-3.52-1.59,1.45-4.18,4.08-6.18,4.08C25.64,36.18,24.84,35.6,24.84,34.08Z"/><path class="cls-2" d="M37.9,33.11c0-2.18.76-5.25,2.56-9.26C42,20.6,45.71,13.38,49.3,13.38c1,0,1.62.69,1.62,2,0,3-4.7,10.43-8.74,12.82a14.82,14.82,0,0,0-1.31,5.39c0,.93.21,1.59.83,1.59,1.21,0,3.28-1.9,4.42-3l.21-.21c.14-.14.9,0,.59.38l-.28.35C45.19,34.42,42.81,37,40.53,37,39,37,37.9,35.74,37.9,33.11Zm9.74-13.85c1.21-2,1.9-3.7,1.59-3.7s-.93.76-2.25,2.76a52.88,52.88,0,0,0-4.15,7.36C44,24.85,46.09,21.85,47.65,19.26Z"/><path class="cls-2" d="M55.66,32.28l-.28.35c-1,1.14-2.83,3.45-5.91,3.45a3.38,3.38,0,0,1-3.7-3.59c0-3.32,3.18-6.91,5.84-6.91,1.42,0,2.38.79,2.38,1.93,0,1-.69,2.18-2.28,3.35a7.16,7.16,0,0,1-3.35,1.52,1.89,1.89,0,0,0,1.93,2.14,7.18,7.18,0,0,0,4.56-2.42l.21-.21C55.21,31.76,56,31.9,55.66,32.28ZM48.58,31c2.07-.83,3.45-2.49,3.45-3.21,0-.24-.14-.35-.38-.35C50.83,27.48,49.17,29.14,48.58,31Z"/><path class="cls-2" d="M62.54,33c0-3.73,3.59-7.95,6.91-7.95a1.83,1.83,0,0,1,2,1.87,2,2,0,0,1-1.93,2.21c-.38,0-.66-.1-.66-.28,0-.35.66-1.38-.07-1.38-1.59,0-3.77,3.32-3.77,5.49a1.61,1.61,0,0,0,1.73,1.83,7.69,7.69,0,0,0,4.87-2.66l.21-.21c.14-.14.9,0,.59.38l-.28.35c-2.07,2.63-4.42,3.73-6.25,3.73A3.19,3.19,0,0,1,62.54,33Z"/><path class="cls-2" d="M82.75,32.28l-.28.35A5.13,5.13,0,0,1,78,34.73a5.21,5.21,0,0,1-3.63,2c-1.87,0-2.87-1.42-2.87-3.42,0-3.77,3.77-8.67,6.7-8.67a1.69,1.69,0,0,1,1.83,1.76c0,.83-.28.52-1,.73-2.83.9-5,5.25-5,7.12,0,.52.1.93.48.93.93,0,2.66-2.14,3-3.39-1-2.11.45-4.15,1.69-4.15.62,0,1.21.55,1.21,1.8a8.5,8.5,0,0,1-1.62,4.35A4.33,4.33,0,0,0,82,32.11l.21-.21C82.3,31.76,83.06,31.9,82.75,32.28Z"/><path class="cls-2" d="M81.75,35.08a2.08,2.08,0,0,1-.31-1,5.74,5.74,0,0,1,.55-1.8c.62-1.76,1.52-4.56,2-6.18a.63.63,0,0,1,.66-.35c.76,0,1.76.52,1.76,1.45a13.22,13.22,0,0,1-1,3c-.28.59-.17.45.21.07,2.25-2.21,3.8-3.9,5-3.9.93,0,2,.69,2,1.62a11.77,11.77,0,0,1-.79,2.76c-.45,1.28-.62,1.66-.62,1.76,0,.48,4.08-4.11,5-4.11A1.86,1.86,0,0,1,98.16,30c0,.79-.79,3.14-.79,3.8,0,.21.07.38.31.38a6.36,6.36,0,0,0,2.87-2l.21-.21c.14-.14.9,0,.59.38l-.28.35C100,34,98.19,35.74,96.4,35.74A1.59,1.59,0,0,1,94.67,34a7.3,7.3,0,0,1,.55-2.38,4.11,4.11,0,0,0,.14-.48c0-.07,0-.07,0-.07s-.24.1-.59.38c-1.38,1.07-4,4-4.63,4a2.06,2.06,0,0,1-1.87-1.83c0-1.11,1.35-4,1.35-4.56,0-.07,0-.07,0-.07-.41,0-5.91,6.74-6.94,6.74A1,1,0,0,1,81.75,35.08Z"/><path class="cls-2" d="M107.66,34.08c0-3.28,4.21-9.4,8.71-9.4,1.31,0,2.18,1.73,1.69,1.9a12.33,12.33,0,0,0-6.39,4.15c-1.9,2.49-2.14,4.49.83,1.87a30.65,30.65,0,0,0,4.11-4.15.86.86,0,0,1,.69-.31c.83,0,2,1.11,1.69,1.59a9.41,9.41,0,0,0-1.45,3.63c0,.41.17.66.52.66.79,0,2.25-1.28,2.8-1.9l.21-.21c.14-.14.9,0,.59.38l-.28.35c-1,1.31-2.73,3-4.32,3-1.35,0-2.21-1.31-1.55-3.52-1.59,1.45-4.18,4.08-6.18,4.08C108.46,36.18,107.66,35.6,107.66,34.08Z"/><path class="cls-2" d="M125.94,43.2c0-3.07,4.11-6.46,7-8,.45-.93.83-2,1.59-3.59-1,1-2.83,2.42-4.28,2.42-2,0-2.42-2.56-.73-5.77,1.59-3,5-5.6,7-5.6,1.21,0,2,.9,2.21,2.42,0,.31-.93.69-1.35.69-.73,0-.59-.55-1.07-.55-.69,0-2.35,1.45-3.56,3.07-1.42,1.83-2.28,3.9-1.66,3.9,1,0,2.87-2.9,4.73-4.59A3.51,3.51,0,0,1,138,26.3a1.91,1.91,0,0,1,1.66,1.11.38.38,0,0,1-.1.59,21.39,21.39,0,0,0-4,6.56,10.71,10.71,0,0,0,4.59-2.45l.21-.21c.14-.14.9,0,.59.38l-.28.35a14.34,14.34,0,0,1-5.39,3.59c-.62.52-.66,1-1.42,2.49C132.74,41,130.12,45,127.56,45A1.58,1.58,0,0,1,125.94,43.2Zm6.25-6c-.17,0-1,.76-2.69,2.73-2.25,2.63-2.56,4.56.62.42C131,39.16,132.43,37.15,132.19,37.15Z"/><path class="cls-2" d="M149.67,32.28l-.28.35c-1,1.14-2.83,3.45-5.91,3.45a3.38,3.38,0,0,1-3.7-3.59c0-3.32,3.18-6.91,5.84-6.91,1.42,0,2.38.79,2.38,1.93,0,1-.69,2.18-2.28,3.35a7.16,7.16,0,0,1-3.35,1.52,1.89,1.89,0,0,0,1.93,2.14,7.18,7.18,0,0,0,4.56-2.42l.21-.21C149.22,31.76,150,31.9,149.67,32.28ZM142.59,31c2.07-.83,3.45-2.49,3.45-3.21,0-.24-.14-.35-.38-.35C144.84,27.48,143.18,29.14,142.59,31Z"/><path class="cls-2" d="M155.06,34.28a7.31,7.31,0,0,1,1-3.14c.07-.14,0-.21-.07-.17-1.31.45-5.67,5-6.53,5-.52,0-1.59-.76-1.59-1.38,0-.14,1.11-2.69,2-5.08.48-1.21.86-2.28,1.11-3,.28-1,.1-1.17.41-1.28.1,0,2.14-.24,2.14,1.59,0,1.42-1.17,3.42-1.93,4.7-.28.41-.07.35.52-.21,1.42-1.24,4.42-3.52,5.91-3.52a2,2,0,0,1,1.55,1.73c0,.83-2.42,4.7-1.38,4.7a9,9,0,0,0,3.32-2.14l.21-.21c.14-.14.9,0,.59.38l-.28.35c-2,2.28-3.63,3.52-5.22,3.52A1.75,1.75,0,0,1,155.06,34.28Z"/><path class="cls-2" d="M168.68,22.37c-2.07,4.15-4.49,9.19-4.49,11.4,0,.86.38,1,1,1,1.07,0,2.76-1.38,4.08-2.69l.21-.21c.14-.14.9,0,.59.38l-.28.35c-.45.59-3.25,4-5.94,4a2.41,2.41,0,0,1-2.52-2.69c0-2.38,2.18-7,4.15-11.12a15.1,15.1,0,0,1-2,.24c-1.21,0-1.49-.52-1.49-1a1.51,1.51,0,0,1,.21-.73c.14-.28.24-.17.62-.14a17.13,17.13,0,0,0,3.38.14c.76-1.59,1.42-3,1.83-4.08.86-2.25.69-2.76,1.07-2.76,1.87,0,2.49.69,2.49,1.45a7.11,7.11,0,0,1-1,2.69c-.38.76-.79,1.66-1.28,2.59l3-.07c.79,0,.73.38.59.62C171.13,22,169.78,22.19,168.68,22.37Z"/><path class="cls-2" d="M178.8,32.28l-.28.35c-1,1.14-2.83,3.45-5.91,3.45a3.38,3.38,0,0,1-3.7-3.59c0-3.32,3.18-6.91,5.84-6.91,1.42,0,2.38.79,2.38,1.93,0,1-.69,2.18-2.28,3.35a7.16,7.16,0,0,1-3.35,1.52,1.89,1.89,0,0,0,1.93,2.14A7.18,7.18,0,0,0,178,32.11l.21-.21C178.35,31.76,179.11,31.9,178.8,32.28ZM171.72,31c2.07-.83,3.45-2.49,3.45-3.21,0-.24-.14-.35-.38-.35C174,27.48,172.3,29.14,171.72,31Z"/></svg>