<?xml version="1.0" encoding="utf-8"?>
<!-- Generator: Adobe Illustrator 21.1.0, SVG Export Plug-In . SVG Version: 6.00 Build 0)  -->
<svg version="1.1" id="Camada_1" xmlns="http://www.w3.org/2000/svg" xmlns:xlink="http://www.w3.org/1999/xlink" x="0px" y="0px"
	 viewBox="0 0 640 480" style="enable-background:new 0 0 640 480;" xml:space="preserve">
<style type="text/css">
	.st0{fill:#A62E38;stroke:#A62E38;stroke-width:3;stroke-miterlimit:10;}
	.st1{fill:#A62E38;stroke:#A62E38;stroke-width:4;stroke-miterlimit:10;}
</style>
<title>Prancheta 1</title>
<path class="st0" d="M184.5,194.5c0.1-0.6,0.1-1.1,0.2-1.6c0.2-1.6,0-0.4,0-0.4c0.1-1,0.3-1.9,0.4-2.9c0.8-5.4,1.8-10.8,3-16.2
	c3.4-16.7,8.5-33,15.2-48.7c14.9-34.2,41.2-67.6,81-71.3c42-3.9,87.9,9.8,120.3,36.6c11,9.2,17.7,17.2,24.2,29.7
	c11.4,21.8,15,46.8,10.3,71c-4.3,22.6-15.2,41.7-27,61.1c-8,13.1-16.6,26-26.5,37.7c-4.6,5.3-10.4,9.6-15.4,14.5
	c-10,9.7-18.8,20.5-26.4,32.1c-5,7.9-8.1,16.2-13,24c-6.1,9.9-12.5,19.7-19.2,29.2c-3.9,5.4-7.8,10.8-12.1,15.9
	c-1.9,2.3-3.8,4.5-5.9,6.6c-1.2,1.2-2.2,2.5-2.5,2.7c-4.8,3.5-10.6,4.9-16.6,6.5c-13,3.3-26.6,4.1-39.9,2.1
	c-7.8-1.1-15.4-2.9-22.8-5.5c-0.2-0.1-1.1-0.4-0.2-0.1s-0.9-0.4-1.1-0.5c-1.6-0.8-3.3-1.6-4.9-2.5c-11.2-6.4-20.6-15.4-27.4-26.3
	c-1.7-2.6-2.5-5.8-3.4-8.9c-2.1-7.9-3.7-15.9-4.9-24c-1.9-13.8-3-27.7-3.1-41.7c-0.2-9.1,0-18.2,0.4-27.3c0.1-1.6,0.1-3.3,0.3-4.9
	c0.1-0.3,0.2-0.7,0.4-1c-0.5,1.6,0.2-0.4,0.4-0.9c3.8-7.1,10.1-11.5,18.8-10.1c4.4,0.7,8.9,2.5,13.3,3.8c2.1,0.6,4.2,1.2,6.3,1.8
	c1,0.3,4.6,1.3,1.6,0.4c0.7,0.2,1.4,0.3,2.1,0.5c1.3,0.4-0.7-0.5,0.6,0.3c0.7,0.4,1.4,0.8,2.1,1.2c1.7,1.3,3.8,4.8,4.4,8.2
	c0.9,5.1-0.8,9.9-0.9,15c-0.1,4.3,0.2,8.7,0.6,13c0.7,8.9,1,20.3,7.2,27.5s15.1,12.7,24.6,12.5c7-0.1,13.3-3.4,18.4-7.9
	c2-1.8,3.8-3.8,5.5-5.9c0.5-0.6,1-1.1,1.4-1.7c3.4-5,3.5-11.8,3.2-17.6c-0.6-11.9-5-23.1-5-34.9l-3,5.2c9.8-4.9,19.1-11,27.6-18
	c10.1-8.2,21.1-19,23.8-32.1c3.2-15.2-1.6-30.6-13.7-40.7c-11.3-9.4-27.3-15-41.4-8.6c-5.6,2.6-10.4,7.1-15.1,11l-12.4,10l10,2.6
	c-4-15.7-3.7-34.2,0.3-50.4c3.6-14.8,10.9-29.2,22.2-39.7c0.3-0.3,0.7-0.6,1-0.9s-0.7,0.5,0.4-0.3c0.8-0.6,1.6-1.1,2.4-1.6
	c4-2.5,8.3-4.5,12.9-5.9c14.6-4.4,28.7-1.5,42.5,4.2c0.4,0.2,2,0.8,1.4,0.6c-0.1,0,2.7,1.2,3.7,1.7c4.3,2,8.5,4.3,12.6,6.7
	c9.7,5.9,19.3,13.4,24.7,23.6c1.2,2.3,2.1,4.8,2.7,7.4c0.3,1.3,0.3,2.6,0.6,4c0.1,0.6,1.1,3.4,0.5,1.8c-0.5-1.3,0.4,1.2,0.5,1.7
	c0.4,1.4,0.6,2.7,0.8,4.1c2.6,22.9-9.8,43.7-19.1,63.6c-3.2,7,7.1,13.1,10.4,6.1c9.6-20.5,20.8-40.6,21-63.8
	c0.2-4.7-0.3-9.3-1.5-13.9c-0.3-1.2-0.7-2.3-1.3-3.4c0,0.1,0.6,3.4,0.5,0.7c-0.1-2-0.5-3.9-1.1-5.8c-3.6-13.4-14-23.7-24.9-31.6
	c-18.4-13.4-43.5-24.6-66.5-21.7c-11.3,1.3-22,5.7-31,12.6c-10.3,8.2-17.6,20.8-22.5,32.8c-8.7,21.4-10.4,47.8-4.6,70.3
	c1.2,4.7,6.7,5.4,10,2.6c6.6-5.4,13.1-11.1,20-16.2c10-7.4,22.2-3.6,31.5,3.3c0.3,0.2,0.5,0.4,0.8,0.6c0.5,0.4,1,0.9,1.6,1.4
	c7.8,6.8,11.3,17.4,8.9,27.5c-0.3,1.5-0.8,3-1.2,4.5c-0.1,0.3-0.8,1.8-0.1,0.3c0.8-1.8-0.4,0.6-0.6,1c-0.6,1.1-1.3,2.2-2,3.3
	c-4.1,6.3-9.6,11.7-15.4,16.5c-8.1,6.8-17.1,12.7-26.6,17.4c-1.9,1.1-3,3-3,5.2c0,12.5,4.8,24.2,5,36.8c0.1,3.9,0.1,5.5-1.1,8.8
	c-0.2,0.6-0.2-0.5,0-0.2c-0.1,0.3-0.3,0.5-0.5,0.8c1.3-1.6-0.4,0.4,1.4-1.4c-4.9,4.6-9.1,10.9-16.6,11.2c-4.6,0.2-8.9-2.3-12.3-5.2
	c-1.2-1.1-2.4-2.2-3.5-3.4c-0.4-0.4-0.7-0.8-1-1.2c0.3,0.3,0.3,1.5,0.2,0.1c-0.1-2.3-1.5-5-1.9-7.3c-0.6-3-0.9-6.1-1.2-9.2
	c-0.5-4.7-0.8-9.5-0.7-14.2c0.2-5,1.5-10,1-15.2c-1-9.5-6-17.9-15.2-21.3c-0.8-0.3-1.7-0.6-2.6-0.8c-0.2,0-0.4,0-0.5-0.1
	c-4.6-1.1,1.1,0.9-0.8-0.2c-3.4-2-8.8-2.4-12.6-3.6c-11.2-3.5-22.7-4.2-32.2,3.8c-4.7,4-8.2,9.3-9.9,15.2c-1.1,4.3-0.6,9.5-0.7,13.9
	c-0.1,5-0.2,10-0.2,15c0,8.2,0.3,16.5,0.9,24.6c1.2,18.4,3.4,37.6,9.2,55.2c2.7,8,8.4,15.2,14.2,21.3c7.4,7.9,16.3,14.3,26.2,18.8
	c11.9,5.4,25.8,7.6,38.8,8.3c13.1,0.7,26.2-0.9,38.6-4.9c5-1.6,10.5-3.5,14.9-6.5c5-3.4,9.1-9.2,12.9-13.9
	c4.6-5.7,8.9-11.6,13.1-17.5c6.6-9.4,12.8-19,18.8-28.8c5.4-8.9,9.1-18.5,15.1-27.1c7.8-10.9,16.7-20.9,26.6-29.9
	c2.3-2.2,4.9-4.1,7.2-6.3c4-3.8,7.4-8.6,10.8-13c14.9-19.4,27.8-40.3,38.5-62.3c20.4-42.8,16.1-96.4-15.2-132.8
	c-15.2-17.9-37.7-30.8-59.4-39.2c-21.7-8.3-44.7-12.7-68-12.9c-14.7-0.2-29,2-42.6,8c-20,8.7-35.8,24.6-47.6,42.6
	c-18.6,28.2-29.1,62.3-34.1,95.6c-0.4,2.4-0.7,4.9-1,7.4C171.7,202.2,183.7,202.1,184.5,194.5L184.5,194.5z"/>
<path class="st1" d="M502.3,145l48.6-8.9c0.1,0-0.7-5-0.6-5l-48.6,8.9C501.5,140.1,502.3,145,502.3,145z"/>
<path class="st1" d="M469.8,81l43.9-27.4c0.8-0.5-0.7-4.6,0-5L469.8,76C469,76.4,470.5,80.5,469.8,81L469.8,81z"/>
<path class="st1" d="M472.6,253.3l58,13.8c-0.3-0.1,0.4-4.9,0-5l-58-13.8C473,248.4,472.2,253.2,472.6,253.3L472.6,253.3z"/>
<path class="st1" d="M496.1,192.6l24.8,4.8c-0.1,0,0.7-4.9,0.6-5l-24.8-4.8C496.8,187.7,496,192.6,496.1,192.6L496.1,192.6z"/>
</svg>
