<?xml version="1.0" encoding="utf-8"?>
<!-- Generator: Adobe Illustrator 21.1.0, SVG Export Plug-In . SVG Version: 6.00 Build 0)  -->
<svg version="1.1" id="Camada_1" xmlns="http://www.w3.org/2000/svg" xmlns:xlink="http://www.w3.org/1999/xlink" x="0px" y="0px"
	 viewBox="0 0 640 480" style="enable-background:new 0 0 640 480;" xml:space="preserve">
<style type="text/css">
	.st0{fill:#A62E38;stroke:#A62E38;stroke-width:3;stroke-miterlimit:10;}
	.st1{fill:#A62E38;}
</style>
<title>Prancheta 1</title>
<path class="st0" d="M113.9,70.6c107.5,1.7,214.9,1,322.4-2.3c30.5-0.9,61-2.1,91.5-3.4c5.8-0.2,5.8-9.3,0-9
	c-107.4,4.8-214.8,7-322.4,6.7c-30.5-0.1-61-0.4-91.6-0.9C108.2,61.5,108.1,70.5,113.9,70.6z"/>
<path class="st1" d="M107.1,74.8c9.6,20.7,19.7,41.1,30.5,61.3c2.7,5.1,10.5,0.6,7.8-4.5c-10.7-20.1-20.9-40.5-30.5-61.2
	C112.4,65,104.6,69.6,107.1,74.8L107.1,74.8z"/>
<path class="st0" d="M141,142c88.3,0.1,176.6-0.5,264.8-1.6c25.2-0.3,50.4-0.7,75.7-1.1c5.8-0.1,5.8-9.1,0-9
	c-88.3,1.5-176.5,2.3-264.8,2.6c-25.2,0.1-50.4,0.1-75.7,0.1C135.2,133,135.2,142,141,142L141,142z"/>
<path class="st1" d="M482.5,139c14.4-27.2,38.2-48.3,50.5-76.7c2.3-5.3-5.5-9.8-7.8-4.5c-12.2,28.4-36.1,49.5-50.5,76.7
	C472,139.6,479.8,144.1,482.5,139L482.5,139z"/>
<path class="st1" d="M147.7,154.5l29.3,58.1c2.6,5.2,10.4,0.6,7.8-4.5l-29.3-58.1C152.9,144.8,145.1,149.3,147.7,154.5L147.7,154.5z
	"/>
<path class="st0" d="M182,218.2c69.4-1.8,138.8-1.7,208.2,0.4c19.6,0.6,39.2,1.4,58.7,2.3c5.8,0.3,5.8-8.7,0-9
	c-69.3-3.2-138.7-4.5-208.1-3.8c-19.6,0.2-39.2,0.6-58.8,1.1C176.2,209.3,176.2,218.3,182,218.2L182,218.2z"/>
<path class="st1" d="M448.1,206.6c13.7-15.7,23.2-34.6,27.6-54.9c1.2-5.6-7.5-8.1-8.7-2.4c-4,18.9-12.7,36.4-25.3,51
	C438,204.7,444.3,211.1,448.1,206.6L448.1,206.6z"/>
<path class="st0" d="M151.9,157.7c82.5,6.2,165.3,7.2,247.9,3c23.3-1.2,46.7-2.8,70-4.8c5.7-0.5,5.8-9.5,0-9
	c-82.4,7.1-165.2,9-247.8,5.8c-23.4-0.9-46.7-2.3-70.1-4C146.1,148.3,146.1,157.3,151.9,157.7L151.9,157.7z"/>
<path class="st1" d="M182.6,234.6c3.2,16.8,9,33,17.3,48c2.8,5.1,10.6,0.5,7.8-4.5c-7.9-14.3-13.4-29.8-16.4-45.9
	C190.2,226.5,181.6,228.9,182.6,234.6L182.6,234.6z"/>
<path class="st0" d="M206,289.1c70,1.2,140,0.7,210-1.6c5.8-0.2,5.8-9.2,0-9c-70,2.3-140,2.8-210,1.6C200.2,280,200.2,289,206,289.1
	z"/>
<path class="st0" d="M415.9,284.7c10-15,18.2-31.3,24.3-48.3c2-5.5-6.7-7.8-8.7-2.4c-5.9,16.3-13.7,31.8-23.4,46.1
	C404.9,284.9,412.7,289.5,415.9,284.7z"/>
<path class="st0" d="M186.4,238.6l249-3c5.8-0.1,5.8-9.1,0-9l-249,3C180.7,229.7,180.7,238.7,186.4,238.6L186.4,238.6z"/>
<path class="st0" d="M209.7,303.9c63.7,0.3,127.4,0.5,191.1,0.4c5.8,0,5.8-9,0-9c-63.7,0.1-127.4-0.1-191.1-0.4
	C203.9,294.9,203.9,303.9,209.7,303.9z"/>
<path class="st0" d="M394.5,298.4c-10.9,17.5-20.6,35.7-29.1,54.5c-2.4,5.2,5.4,9.8,7.8,4.5c8.5-18.8,18.3-37,29.1-54.5
	C405.3,298,397.5,293.5,394.5,298.4z"/>
<path class="st1" d="M204.6,307.1c6.1,18,14.4,35.3,24.6,51.4c3.1,4.9,10.9,0.4,7.8-4.5c-9.8-15.4-17.8-31.9-23.6-49.2
	C211.4,299.2,202.7,301.6,204.6,307.1z"/>
<path class="st0" d="M237,364.4c22.2-1.9,44.6-3.8,66.9-2.1c10.6,0.8,21.2,3.3,31.9,3.4c11,0,21.9-2,32.7-3.9c5.7-1,3.3-9.7-2.4-8.7
	c-10.7,1.9-21.4,3.9-32.3,3.6c-10.7-0.3-21.2-2.7-31.9-3.5c-21.7-1.5-43.4,0.4-64.9,2.2C231.3,355.8,231.2,364.8,237,364.4
	L237,364.4z"/>
<path class="st1" d="M237.1,377.8c3.3,16.9,9.7,33,19,47.5c3.1,4.9,10.9,0.4,7.8-4.5c-8.9-13.8-15-29.2-18.1-45.3
	C244.7,369.8,236,372.1,237.1,377.8z"/>
<path class="st0" d="M261.4,429.7l82.5,5.8c5.8,0.4,5.8-8.6,0-9l-82.5-5.8C255.6,420.3,255.7,429.3,261.4,429.7z"/>
<path class="st0" d="M343.9,429.1c1.4-17.3,6.5-34.2,15-49.4c2.8-5.1-5-9.6-7.8-4.5c-9.2,16.6-14.8,35-16.2,53.9
	C334.5,434.9,343.5,434.9,343.9,429.1L343.9,429.1z"/>
<path class="st0" d="M243,383.6c36.2-10.5,73.4,8.6,110,0.5c5.6-1.2,3.3-9.9-2.4-8.7c-36.6,8.1-73.5-11.1-110-0.5
	C235.1,376.5,237.4,385.2,243,383.6L243,383.6z"/>
</svg>
