<?xml version="1.0" encoding="utf-8"?>
<!-- Generator: Adobe Illustrator 21.1.0, SVG Export Plug-In . SVG Version: 6.00 Build 0)  -->
<svg version="1.1" id="Camada_1" xmlns="http://www.w3.org/2000/svg" xmlns:xlink="http://www.w3.org/1999/xlink" x="0px" y="0px"
	 viewBox="0 0 640 480" style="enable-background:new 0 0 640 480;" xml:space="preserve">
<style type="text/css">
	.st0{stroke:#A62E38;stroke-width:5;stroke-miterlimit:10;}
	.st1{fill:#A62E38;}
</style>
<title>Prancheta 1</title>
<path class="st0" d="M397.2,294.6c-1.4-4.6-3.7-8.9-6.6-12.7c-1.2-1.5-3.8,0-2.6,1.5c2.8,3.6,5,7.6,6.3,12
	C394.9,297.2,397.8,296.5,397.2,294.6L397.2,294.6z"/>
<path class="st0" d="M382.5,264.6l-3.9-11c-0.6-1.8-3.6-1.2-2.9,0.7l3.9,11C380.2,267.1,383.2,266.5,382.5,264.6L382.5,264.6z"/>
<path class="st0" d="M376.1,231.5v-7.1c0-0.8-0.7-1.5-1.5-1.5s-1.5,0.7-1.5,1.5v7.1c0,0.8,0.7,1.5,1.5,1.5S376.1,232.3,376.1,231.5z
	"/>
<path class="st0" d="M377.8,209.2l5.2-8.9c1-1.7-1.7-3.1-2.6-1.4l-5.2,8.9C374.2,209.4,376.8,210.9,377.8,209.2L377.8,209.2z"/>
<path class="st0" d="M389.4,173.4l3-8.9c0.6-1.8-2.3-2.6-2.9-0.8l-3,8.9C385.9,174.5,388.8,175.3,389.4,173.4z"/>
<path class="st1" d="M367,89.6l20.1-43.8c2.4,11.2,5.7,22.2,9.6,32.9c0.8,2.2,1.7,4.5,3.6,6c2.3,1.8,5.5,2,8.4,2.1l41.9,0.9
	c-14.9,8.7-29.6,17.9-44,27.5c9.9,9.1,18.6,19.4,25.9,30.8l-36.7-12.7c-2.3-0.8-4.7-1.6-7.1-1.2c-2.2,0.4-4.2,1.7-6,3.1
	c-9,6.8-17.5,14.3-25.3,22.4c-6.7-7.4-1.3-19,3.9-27.5c0.8-1,1.2-2.3,1.2-3.5c-0.2-2.2-2.5-3.5-4.5-4.4c-12.6-5.3-25.9-9-39.4-10.8
	c13.8-11.2,30.2-18.8,47.7-21.9"/>
<path class="st1" d="M368.3,90.4l20.1-43.8l-2.7-0.4c1.9,8.7,4.3,17.3,7.1,25.7c1.7,5,3.1,12.3,8.2,14.9c2.4,1.2,5.1,1.3,7.8,1.4
	c4.6,0.2,9.3,0.2,14,0.3l27.9,0.6l-0.8-2.8c-14.9,8.7-29.6,17.9-44,27.5c-0.7,0.4-0.9,1.4-0.5,2.1c0.1,0.1,0.1,0.2,0.2,0.3
	c9.8,9.1,18.4,19.3,25.7,30.4l1.7-2.2l-23.8-8.3l-11-3.8c-3-1-6.2-2.4-9.5-1.9c-5.6,0.9-11,6.6-15.2,10.1
	c-5.9,5-11.6,10.2-16.9,15.8h2.1c-5.3-6.6-1.6-15.3,1.9-21.8c2.1-3.8,5.8-8,1.6-11.8c-4.5-4.1-12.9-5.8-18.5-7.5
	c-8-2.4-16.2-4.3-24.5-5.4l0.7,2.5c13.7-11,29.9-18.4,47.1-21.5c1.9-0.4,1.1-3.2-0.8-2.9c-17.7,3.3-34.4,11-48.4,22.3
	c-0.6,0.6-0.6,1.6,0,2.1c0.2,0.2,0.4,0.3,0.6,0.4c7.4,1,14.7,2.6,21.9,4.6c3.6,1,7.1,2.2,10.6,3.5c4.7,1.7,12,3.7,8.2,10.3
	c-4.8,8.3-9.3,19-2.5,27.4c0.6,0.6,1.5,0.6,2.1,0c4.5-4.7,9.3-9.2,14.2-13.5c5.3-4.6,12.5-12.7,20.1-11.2c6.4,1.2,12.9,4.4,19.1,6.5
	l20.2,7c0.8,0.2,1.6-0.3,1.8-1.1c0.1-0.4,0-0.8-0.1-1.1c-7.4-11.4-16.2-21.9-26.2-31.2l-0.3,2.4c14.4-9.6,29-18.7,44-27.4
	c0.7-0.4,0.9-1.4,0.5-2.1c-0.3-0.4-0.7-0.7-1.3-0.7l-21.9-0.5c-7.5-0.2-15.3,0.3-22.7-0.6c-8.1-1-9.7-11.9-11.8-18.5
	c-2.2-7-4-14-5.6-21.2c-0.2-0.8-1.1-1.3-1.9-1c-0.3,0.1-0.6,0.3-0.8,0.6l-20.1,43.8C364.9,90.6,367.5,92.1,368.3,90.4L368.3,90.4z"
	/>
<path class="st1" d="M88.6,243c-1.6-1.3-3.1-2.7-4.5-4.1c0,0-1.6-1.9-0.8-0.8l0.3,0.3l-0.5-0.8c0,0.1,0.5,1.5,0.5,1.8
	c-0.2,1.7-1,3.3-2.2,4.5c-0.2,0.2-1.7,1.4-1.9,1c0,0,2.5-0.7,2.7-0.7c-3.2,0.7,3.6,0.7,0.4,0c0.7,0.1,1.3,0.3,2,0.5
	c2.1,0.6-1.6-1.1,0.2,0.1c1.5,1.1-0.1-0.4-0.2-0.4l1,1l-0.7-1c1.1-0.6-0.1,4.1,0.1-0.2c-0.1,1.6,0.2,1,0.2-0.3c0,0.8,0.1,1.6,0,2.5
	c0.1-0.9-0.4-2.8-0.2-0.4c0-0.1,1-2.4,0.2-0.8s0.8-0.7,1-1.1s1-0.3,1.2-0.6c-0.7,0.8-2.4,0.5-0.8,0.2c-0.4,0.1-3.3,0.4-0.4,0
	c-0.7,0.1-2.1,0-0.4,0c-0.9,0-1.9-1.1-0.5,0c-0.3-0.2-2-2-2-2c0.4-0.2,1.2,2,1,1.8s-1-2.4-0.3-0.7l0.1,0.6c0-1.6,0-1.8,0-0.6
	c0.4,0.1-0.5,1.6-0.6,1.8c1.3-4.1,0,0.3-0.1-0.3c-0.2-1,1.9-1-0.6,0c-1.6,0.6,0.3-0.1,0.6-0.1c-1.1,0.1-1.8,0.1-2.9,0.2l-0.6-0.3
	c-1-0.5-0.9-0.4,0.4,0.3c-0.1,0-2-1.6-0.6-0.4c1.3,1.4,2.1,3.1,2.6,4.9c0.1,0.5,1,4.4,0.7,2.6c0.5,2.3-0.2,1.1,0.8-0.4
	c0.5-0.6,1.1-1.1,1.7-1.6c1.3-1.1-0.4,0.6-0.8,0.1l1.3-0.2h-1.4l1,0.1c-1.6-0.6-2-0.7-1.2-0.3c-0.1,0-2.8-1.6-3.9-2.3
	c-0.9-0.6-1.8-1.2-2.7-1.9c0.3,0.2,1.2,1-0.1,0s-2.8-2.3-4.1-3.6c-0.8-0.7-1.4-1.5-2.2-2.2c-3.1-3.2,0.4,0.8-1-1.2
	c-0.4-0.6-2.6-4.4-1.4-2.3l-0.4-1.4l0.1,1.2v-0.7c0-1.1-0.1-1-0.3,0.4c-0.2-0.2,0.9-2.3,0-0.8s0.5-0.9,0.7-1.2
	c0.9-1.4-0.1,0.2-0.3,0.4c0,0,2.8-2.4,1.6-1.5c-1.4,1,4-1.8,1-0.6c1-0.4,2-0.6,3.1-0.9c-0.1,0,2.8-0.6,1.4-0.4
	c4.5-0.6,9.3-0.1,13.7,0.3c0.3,0,3.6,0.5,1.8,0.2c-1.6-0.3,0.8,0.2,0.9,0.2c2.6,0.6-0.1-0.1-0.9-1.6c-0.1-0.2-0.5-1.4-0.6-1.5
	c-0.8-0.6-0.3,1.4-0.1,0.5c0.4-1.5-0.3,1-0.3,1c-0.4,1.2-0.7,2.5-1.2,3.7c-0.1,0.3-1.2,3.2-0.6,1.7s-0.7,1.4-0.8,1.6
	c-0.3,0.6-2.8,4.4-1.4,2.5c-0.2,0.3-2,2.4-0.2,0.3c0.1-0.1,2.3-0.8,0.6-0.3s1.1,0.1,1.6,0.1c0.9,0.2,1,0.2,0.2,0
	c-1.9-0.5-0.9,0.1,2.9,1.9c0.9,1.2,1.5,2.5,1.8,3.9c0.2,0.5-0.5,3,0,1.2s0,0.2-0.1,0.3c-1.6,1.7,0.3-0.2,0.6-0.4
	c-1.7,1.1,2.3-1.3,2.8-1.6c0.9-0.5,1.9-0.9,2.8-1.4c0.8-0.4,0.9-0.5,0.3-0.2c-3.4,1.5-6.8,0.1-10.1-4.3l-0.2-0.5
	c-0.3-0.7-0.3-0.7-0.1,0.2l0.2,0.7c-0.1-1.2-0.1-1.2,0,0c0.2,2,0.3,4.1,0.2,6.1c0,1.1-0.1,2.3-0.2,3.5c0-0.4,0.2-1.5-0.1,0.3
	c-0.2,1.1-0.5,2.3-0.8,3.4c-0.1,0.3-1.1,3.2-0.6,2.1c-0.3,0.8-0.6,1.5-1,2.2c-0.2,0.3-1.8,2.8-0.9,1.5s-0.7,0.7-0.7,0.8
	c-0.7,0.7-1.4,1.4-2.1,2c1.8-1.5-2.5,1.4-3.1,1.6c2.6-1-4,0-0.8,0c-2.5,0-4.9-0.8-6.9-2.2c-0.9-0.5-1.7-1-2.6-1.6
	c0.5,0.4,1.7,1.6-0.6-0.5c-0.6-0.5-4-4.1-2.8-2.6c-1.1-1.4-2-2.9-2.7-4.5c-1.1-2.2,0.5,1.8-0.2-0.6l-0.6-2.1c0.6,2.3,0,0.5,0-0.3
	c0-1,0-1.9,0-2.9c0,0.3-0.4,2.2-0.1,0.4c0.2-1.2,0.5-2.3,0.9-3.5c-1,2.8,2.2-2.9,0.4-0.8c0.6-0.7,1.3-1.4,2-2
	c-1.4,1.1,1.1-0.5,1.6-0.7c1.5-0.8,0.4-0.2,0.1-0.1c1.3-0.5,2.5-0.9,3.8-1.2c1-0.3,2.1-0.4,3.1-0.7c2.1-0.6-2.3,0,0.7-0.1
	c1.8-0.1,3.5-0.2,5.3-0.1c0.9,0,1.8,0.1,2.7,0.1c2.8,0.1-0.9-0.5,0.7,0.1s3.5,0.8,5.1,1.3c0.4,0.1,3,1,1.3,0.4s1.7,0.9,1.7,0.9
	c0.9,0.5,4.4,3.2,2.2,1.2c0.9,0.8,3.6,3.9,1.8,1.5c0.5,0.7,0.9,1.4,1.3,2.1c1.4,1.9,0.3-0.8,0.3,0.6c0,2.2,0.3-0.4,0.2-0.3
	c0.9-1.3,1.6-2.7,2.3-4.1c0.8-1.4-2.2,1.3-0.3,0.1c1-0.7-2.2-0.3,0.9-0.2c-0.6,0.1-1.3,0.1-1.9,0c-1.6-0.5,2.4,0.2-0.4-0.1
	c-0.8-0.1-2.4-1.2,0,0.1c-0.8-0.4-1.5-0.8-2.2-1.3c3.1,2.1-0.1,0,0.1-0.1l0.7,1.1c-0.5-0.7-0.9-1.5-1.3-2.2
	c-3.8-7.1-13.7-9.4-20.5-5.4c-7.2,4.2-9.2,13.4-5.4,20.5c8.2,15.3,27.7,21.3,43.2,14.2c19.7-8.9,17-32.8,4-46.2
	c-20-20.6-66.9-20.6-80.2,7.8c-7.8,16.5-4.1,34.8,8.1,48.1c12.5,13.6,32.1,19.8,49.2,11.9c16.2-7.4,24.1-24.7,25-41.7
	c0.5-8.7-0.4-18.8-5.9-25.9c-8-10-19.8-8.5-30.1-3.3c-8.4,4.2-15.3,10.3-18.6,19.4s-0.9,19.8,6.4,26.2c7.6,6.6,18.2,7.4,27.2,3.5
	c8-3.5,13.5-10.5,16.9-18.3c3.7-8.4,6.4-17,4.8-26.3c-1.7-9.9-9.8-17-19.1-19.7c-16.6-4.7-37.2-3.2-50.7,7.9
	c-14.7,12-14.1,32.4-3.1,46.5c10.2,13.2,27.4,25.7,44.9,22.2c9.4-1.9,17.5-8.9,20.1-18.2c2.4-8.8,0.1-18.2-3.4-26.3
	c-6.9-15.8-25.8-25.6-41.5-15.1c-16.2,10.9-17.2,34.5-2,46.8c15.7,12.7,40.8,9.6,48.2-10.7c6.2-16.8-4.3-34.2-20.8-39.3
	c-18.3-5.7-41.4,5.5-38.5,27c1.2,9,6.7,15.8,13.4,21.5c6.2,5.2,15.2,6,21.2,0C94,258.9,94.8,248.4,88.6,243L88.6,243z"/>
<path class="st1" d="M221.4,247.1c0.5,1.9-0.9,3.6-1,5.4c-0.1,1.7-1.2-0.2-0.4,0.4c0,0,0.8-0.9-0.4,0.1c0.8-0.6,1.6-1.1,2.5-1.5
	c-2.2,1,1.6-0.1,2.3-0.4c1.5-0.6-0.4,0.1-0.8,0.1c1.1,0,2.2-0.1,3.3-0.1c0.6,0,4.2,0.3,2.6,0.1s2.4,0.7,3.1,0.8s2.7,1.1,0-0.1
	c0.6,0.2,1.1,0.5,1.7,0.9c0.5,0.3,1.1,0.6,1.6,1c3.4,1.9-1.4-1,0.4,0.4c0.5,0.4,0.9,0.8,1.3,1.3c-1.8-2-0.5-0.7-0.2,0
	c0.3,0.5,0.8,1.8,0.6,1.8c-0.8,0,1-2.8,0.9-2.7s-1,1.7-0.6,0.6s-2,1.1,0.1-0.1c-0.1,0.1-2.1,0.4-1,0.4c1.4,0-1.7,0-1.5,0
	c-1.5,0-3-0.2-4.4-0.6c-2-0.5-4.1-1.1-6.1-1.8c-0.8-0.3-5.3-2-3.8-1.4c-1.7-0.8-3.4-1.6-5-2.6c-0.7-0.4-3.8-2.8-2.7-1.8
	c-1.2-1-2.3-2.1-3.3-3.4c1.5,2.1-1.2-3.7-0.3-0.6c-0.3-0.9-0.5-1.8-0.7-2.6c0.1,0.2,0.1,2.4,0.1,0.6c0-0.9,0-1.8,0-2.7
	c0-1.8,0,0.4-0.1,0.7c0.8-2.2-0.3-0.2-0.2-0.1c-0.1,0,1.3-2.1,0.2-0.7s0.3-0.4,0.6-0.5c-2.3,0.9,2-0.4,0.4-0.1
	c-1.1,0.2,4.6-0.6,1.7-0.4c1.5-0.1,3-0.1,4.5,0.1c-2.5-0.3,1.8,0.7,2.6,0.9c2.3,0.8-1.6-0.9,0.5,0.3c0.9,0.5,1.7,1,2.6,1.5
	c2,1.4-1.2-1.3,0.5,0.4c0.5,0.5,1.1,1,1.6,1.6c-1.5-1.6,1.1,1.8,1.5,2.5c0.8,1.5,0.2,0.1,0-0.2c0.4,0.9,0.6,1.9,0.9,2.9
	c0,0.1,0.6,2.5,0.3,0.9s0.1,2.1,0.1,2.5c0,0.1,0,2.6,0.1,1s-0.3,1.3-0.4,1.7c-0.2,0.7-0.4,1.4-0.6,2.1c0.2-0.6,1.2-2.1-0.2,0.4
	c-0.3,0.6-2.3,3.5-0.9,1.8c-0.6,0.8-1.3,1.4-2,2.1s-1.6,1.3-0.3,0.4c-0.8,0.5-1.6,1-2.5,1.5c0.2-0.1,1.9-0.7,0.3-0.1
	c-1.2,0.4-4.6,0.7-1.6,0.6c-0.7,0-4.8-0.2-3.1,0.1s-0.2-0.1-0.5-0.2c-1-0.3-2.1-0.6-3.1-0.9c-1.6-0.5,0.4,0.1,0.6,0.2
	c-0.8-0.4-1.5-0.8-2.3-1.2c-0.9-0.5-2.9-2.4-1.1-0.7c-0.4-0.4-3.3-3.3-2.4-2.2c1.1,1.4-0.5-0.7-0.7-1.1c-0.4-0.8-0.9-1.5-1.2-2.3
	c-1-2,0.5,2.1,0.1,0c-0.1-0.6-0.3-1.3-0.5-1.9c-0.2-0.8,0-2.6,0-0.1c0-0.7,0-1.4,0-2s0-1.4,0.1-2c-0.1,0.7-0.6,2.7,0.1,0
	c0.3-0.9,1.9-5.2,0.8-2.9c0.6-1.2,1.3-2.4,2-3.6c1.4-2.4,0.6-0.9,0.1-0.3c0.4-0.5,0.9-1,1.4-1.6s3.6-3.3,1.6-1.8
	c1.5-1.1,3.1-2,4.7-2.8c-2.4,1.2,1.5-0.4,2.3-0.6c0.7-0.2,1.4-0.3,2.1-0.4c-2.7,0.5-0.4,0.1,0.2,0.1s1.4,0,2.1,0
	c0.4,0,3.4,0.1,1.5,0c-1.6-0.1,0.6,0.1,0.8,0.1c1.2,0.2,2.3,0.5,3.4,0.9c4.5,1.3,8.5,3.9,11.5,7.5c-1-1.2,0.5,0.8,0.6,0.8
	c0.6,0.9,1.1,1.8,1.5,2.7c-0.1-0.3-0.7-1.6-0.1,0c0.5,1.4,0.8-0.9,0.1,0.4c-0.8,1.5,0.6-2.1,1-2.5c0.5-0.4,1-0.8,1.6-1.1
	c0.8-0.3,0.8-0.3,0,0c-0.6,0.2-1.3,0.4-1.9,0.5c0.2-0.1,2.4-0.2,0.6-0.1c-1.1,0.1-2.3,0.1-3.5,0.2c-2.2,0-4.4-0.1-6.7-0.1l-14.8-0.6
	c-2.4-0.1-4.8-0.1-7.2-0.2c-1.1-0.1-2.3-0.1-3.4-0.2c-2.6-0.3,1.6,0.4-1-0.2c-0.3-0.1-3.6-1-2.1-0.4c1,0.4-1.2-0.7-1.5-0.8
	c-2-1.2,1.4,1.3-0.3-0.3c-0.8-0.8-0.2,0.9-0.2-0.2c0-2.1,0.4,4.4,0.2,2.3c-0.1-1.2-0.9,0.6,0.1-0.1c1.6-1.1-1.6,0.6,0.3-0.2
	s-1.8,0.4,0.4-0.1c1.8-0.4-0.6,0.2-0.8,0.2c-1.6-0.3,1.6-0.1,2-0.1c2.4,0-1.6-0.5,0.7,0.1c2.9,0.7,5.5,2.2,7.6,4.3
	c3.5,3.4,6.8,7.1,9.8,11.1c5.1,6.3,15.9,5.3,21.2,0c6.2-6.2,5.1-14.9,0-21.2c-9.6-12-20.9-22.6-37-24.1c-15-1.4-29.7,8-33.5,22.8
	c-4.1,16.1,7.9,30.5,22.6,35.1c6.7,2.1,14,2.2,21,2.4s14,0.5,21,0.5c14.9,0.1,31-6.2,33.2-22.9c2.1-15.3-7.6-28.5-19.5-37
	c-22-15.7-52.4-11.3-68.3,10.4c-15.6,21.4-8.9,52.7,15.6,64c12.1,5.6,26.1,6,37.8-1c12.2-7.4,19.8-20.4,20.4-34.6
	c1.3-29.8-30.2-53.6-58.2-41.9c-14.9,6.2-21.5,21.4-18.6,36.9c2.4,13.2,12.7,23.8,24.5,29.6c14.8,7.3,33.6,12.7,48.9,3.9
	c17.2-10,17.6-32.7,5-46.5c-8.9-9.8-23.5-14.2-36.4-12.7c-16.9,2-34.9,14.3-29.9,33.7c2,7.8,10.7,12.6,18.4,10.5
	c7.9-2.3,12.6-10.5,10.5-18.4L221.4,247.1z"/>
<path class="st1" d="M502.2,233.2c0.6-2.5,3.6-4.1,5.5-5c-1.3,0.5-1.9-0.2,0.6-0.1c4.4,0.3,6.4,1.9,7.1,5.9c-0.1-0.6,0-3.1-0.2,0.3
	l-0.5,1.1c0.8-1.4,1-1.7,0.5-0.9c0.6,0.3-3.6,2.1,0.3,0.1c2.8-1.4-1.5-0.2,2.3-0.7c9.1-1.2,20.4,0.5,29.9,4.8
	c-0.8-0.3-1.2-0.7,1,0.6c1.2,0.7,2.4,1.3,3.6,2c0.5,0.3,3.1,2.1,1.2,0.7c0.8,0.6,1.5,1.3,2.3,2c1.1,1,2.1,2.1,3.1,3.2
	c0.3,0.3,1.5,2.3,0.4,0.5c0.5,0.8,1.1,1.6,1.6,2.5s0.9,1.7,1.3,2.6c-0.5-1.1-0.5-1.2-0.2-0.2c0.4,1.2,0.7,2.3,1,3.5
	c-0.5-2.4,0-0.1,0,0.5c0.3,3.4-0.3,0.5,0.4-0.3c0.6-0.7,1.2-1.5,1.9-2.1c2.4-2,0.5-0.5,0.2-0.2l1.5-0.1c-0.9,0.1-1.7,0.1-2.6,0.1
	c-0.9,0-1.8-0.1-2.7-0.2c3.5,0.4-0.9-0.3-1.6-0.5c-11.4-2.6-20-6.3-30.1-12c-4.2-2.4-10.3-6-12.9-8c1.6,1.2-2.1-2-1.9-1.8
	c-2.8-2.7-0.4-0.7-0.4-0.4c-0.1,1.8,0.5,2.5-0.1,4.5c-0.2,1.8-1.1,3.4-2.7,4.3c-1.3,0.5-1,0.4,0.7-0.1c4.4-1.1,9-1.6,13.5-1.2
	c2,0.1,4.1,0.5,6,1.2c0.9,0.2,1.8,0.5,2.6,0.9c-2.8-1.1,1.4,0.9,1.9,1.3l0.6,0.4c-1.3-1-1.3-0.9,0,0.2c0.8-2.4-1.9-0.2,0,0l-0.5-1.3
	c0.4,1.5,0.4,1.7,0.2,0.6c-1.2-2.1,1.7-1.6-0.4-0.5l0.3-1l-0.8,1.2l0.5-0.8c-1.3,1.2-1.4,1.3-0.3,0.4c-2.4,1.7-3,1.7-5.8,2.4
	c-10.8,2.8-23,3.5-34.5,3c-0.9,0-1.8-0.1-2.7-0.2c3.5,0.3-0.9-0.3-1.3-0.4c-2.4-0.4,0.1-0.5-0.1,0.1l-1.1-0.6
	c0.6,0.3,1.1,0.9,1.5,1.5l0.4,0.6c-1.2-2.2-1-1.3,0.4,2.5c0.3,0.5-1.4,2.9,0.1-0.3l-0.3,0.9c-0.8,0.8-0.8,0.9,0,0.1
	c0.7-0.7,0.7-0.8,0.1-0.1c0.9-0.6,1.9-1.1,2.9-1.5c-0.9,0.4-1.1,0.3,1-0.2c1.4-0.3,2.7-0.8,4.1-1.1c2.7-0.6,5.5-1.2,8.3-1.6
	c5.9-0.7,11.8-0.8,17.6-0.5c4.1,0.2,8.9,0.6,11.9,2.4c2.6,1.6,0.8,0.6,0.3,0.2c2.4,2-0.3-1.3,1,1.5c-0.4-0.7-0.6-1.4-0.8-2.2
	c0.4-1.7,0.4-2.1,0.2-1c-0.3,1.1-0.1,0.8,0.5-0.8c-2.2,3.1,1.1-1.7-0.2,0.3c-1,1.5,2.6-1.3-0.4,0.4l-2.3,1.3
	c2.8-1.5-0.8,0.3-1.4,0.4c-1.1,0.3-5.7,1.1-2.5,0.7c-3.5,0.3-6.9,0.3-10.4,0.1c-3.2-0.2-1.9-0.2-1.2-0.1c-1.7-0.3-3.4-0.6-5.1-1.1
	c-2.2-0.6-4.5-1.2-6.6-2.1c1.9,0.7-3.2-1.5-2.8-1.3c-0.9-0.5-1.8-1-2.7-1.5l-1.2-0.8c1,0.8,1.1,0.9,0.3,0.2
	c-0.8-0.7-0.7-0.5,0.2,0.5c0.4,0.8,0.6,1.7,0.6,2.6c-0.2,1.9-0.9,3.7-2.1,5.3c1.2-1.9,0.7-0.5-0.2,0c0.6-0.4,4.1-1.6,1.1-0.7
	c0.8-0.2,1.6-0.5,2.5-0.7c4.1-1.1,8.3-1.2,12.4-0.3c4.8,1-1.8-1,1.9,0.8c0.4,0.2,2.3,1.6,0.4,0.1c-0.1-0.1,3,3,1.7,1.5
	s1.1,2,1.1,1.9c-1.3-2.8,0,0.1-0.1,0.3l-0.2-1.2c-0.1,1.6,0,1.8,0.1,0.7c0.3-2.3-1.2,2.9,0.3-0.4c-0.2,0.4-2.4,3.7-0.7,1.6
	c0.1-0.2-3.1,3-1.6,1.7c0.8-0.6,0.5-0.4-0.8,0.5c-0.8,0.5-1.6,1-2.5,1.4c1-0.4,1.6-0.3-0.4-0.1c-4.3,0.4,2.6,0.4-2.2,0.2
	c0.4,0-4.6-0.5-2.8-0.2c0.9,0.1,0.5-0.1-1.2-0.4c-1.1-0.3-2.1-0.6-3.1-1c-1.9-0.7-3.7-1.6-5.3-2.8c-2.2-1.2-4.2-2.7-5.8-4.6
	c-2-2.1-2-1.9-3.2-4.6l0.3,0.8c-0.4-1.8-0.5-1.9-0.4-0.3v-1.5c-0.3,1.6-0.2,1.4,0.3-0.4l-0.1,0.5c-0.3,0.9-0.1,0.7,0.6-0.8
	c-2,1.3,1-0.9,1.5-1.4c7.4-7.4,16.8-12.5,27-14.6c1.3-0.3,2.6-0.6,3.9-0.8c-2.8,0.4,1.8-0.2,1.8,0c0,0.4-2-0.7-2.2-0.8
	c-2.3-2.8-2.7-3.1-1.3-0.9c-0.3-0.8-0.2-0.8,0.1,0.2c2.2,5.8,1.8,9.1,0.2,14.5c-2.3,7.5,2.7,16.7,10.5,18.5c8,2,16.1-2.6,18.5-10.5
	c6.2-20.1-0.5-51.2-26.4-51c-18.6,0.2-37.5,9.7-51,22c-7.7,7-13.8,16.1-13.3,26.9c0.5,10.4,6.1,20.1,13.8,27
	c15,13.7,37.8,21.4,56.8,11.1c19.3-10.5,24.7-35.5,10-52.1c-13.5-15.1-38.9-16.2-56-6.9c-9.8,5.3-15.7,16.1-13,27.2
	c2.5,10.2,11.7,16.8,20.8,20.8c17.5,7.6,40,10.7,57.3,0.8c8.4-4.8,14.3-12.6,15.6-22.2c1.5-11.3-4.8-21.7-13.9-27.9
	c-8.9-6-20.6-7.1-31-7.4c-10.8-0.3-21.5,0.9-32,3.5c-10.2,2.5-20,7.5-25.3,17c-5.7,10.1-4.4,23.1,4.1,31.3c7,6.8,17.2,8.8,26.6,9
	c10.9,0.1,21.8-0.7,32.5-2.5c10-1.5,20-4.4,27.4-11.7c7.7-7.4,11.4-18.8,8.3-29.1c-5.9-20-30.8-26.4-49.2-24.5
	c-11.8,1.2-24.7,4.5-29.6,16.6c-4.4,10.8,0.9,22.2,9.3,29.4c14.4,12.3,33.6,21.4,51.7,26.4c8.5,2.4,18,4.1,26.7,1.5
	c11.5-3.5,18.7-14,18.4-26c-0.4-19.3-14.3-36.4-31.4-44.3c-9.6-4.4-19.3-6.6-29.7-7.8c-10.7-1.2-21.9-1.2-31.6,4.3
	c-9.3,5.2-15.5,15.2-15,26c0.5,12.1,9.8,23,22.3,23.4c10.5,0.4,20.9-6.4,23.3-16.9c1.8-7.6-2.3-16.6-10.5-18.4
	C513.1,221,504.1,225,502.2,233.2L502.2,233.2z"/>
<path class="st1" d="M530.2,389.5c1.3-0.6,2.7-0.8,4.1-0.6c-0.6,0-1.8-0.9-0.7-0.1c1.5,1.2-0.6-0.6-0.6-0.4s1.7,1.6,0.4,0.2
	c-0.5-0.5-1-1-1.4-1.5c0.5,0.6,0.7,1.4,0.5,0.3c-0.4-2.1,0.5,1.9-0.1-0.4c-0.2-0.7-0.4-1.4-0.5-2.1c0.1,0.3,0.1,2.1,0.1,0.4
	c0-0.7,0-1.4,0-2.2c0-0.2,0.4-2.4,0.1-0.9s0.3-0.8,0.3-0.9c0.2-0.7,0.4-1.4,0.7-2.1c0.6-1.7,0.1,0,0,0.2c0.5-0.9,1-1.7,1.5-2.5
	c-1.1,1.8,0,0,0.4-0.4c0.5-0.5,1.1-1.1,1.6-1.6c1.2-1.1,0.2-0.3-0.1-0.1c0.6-0.4,1.3-0.9,1.9-1.2c0.7-0.4,3.5-1.9,3-1.6
	c-1.3,0.5,1.1-0.3,1.1-0.3c1-0.3,2-0.6,3-0.8c0.7-0.2,4.3-0.6,2.1-0.4c1.5-0.1,3.1-0.2,4.6-0.1c0.8,0,4.2,0.5,1.8,0.1
	c1.7,0.3,3.3,0.8,5,1.3s0.1-0.1-0.2-0.2c0.7,0.3,1.3,0.6,1.9,1s1.2,0.7,1.9,1.1c0.1,0.1,1.9,1.4,0.8,0.5s2.4,2.5,1.3,1.3
	s0.4,0.7,0.5,0.8c0.9,1.2,0.7,1.4,0.2-0.1c0.5,1.3,0.7,3.4,0.5,0.8c0.1,1.2,0,2.5,0,3.7c0-2.6-0.2-0.6-0.4,0.8c0-0.4,1.3-2,0.4-0.8
	c-0.2,0.2-1.5,2.6-0.4,1s0,0-0.3,0.3c-2,2-0.1,0,0.3-0.2c-2.1,0.8-0.1-0.1,0.6,0.1c-3.8-0.6-6.6-0.1-9.5-0.7
	c-3.5-0.7-7-1.6-10.4-2.7c-1.2-0.4-3.4-1.2-4-1.5c0.9,0.4-1.8-0.8-1.5-0.7l-1.5-0.8l3,4.2c0.3,0.3-0.3,1.8,0,0.2
	c0.1-0.7,0.1-1.4,0-2.1c0,2.5,0.2-0.3,0.4-1.4c0.5-2.5-0.7,0.7,0.5-1.5c0.3-0.6,0.7-1.2,1-1.8c0.2-0.2,1.8-2.4,0.8-1.3
	c-0.7,0.8,1.7-1.6,2.1-2c1.2-1.2-0.1,0-0.3,0.1c0.5-0.4,1.1-0.8,1.7-1.1s3.6-1.8,2.5-1.4c-1.5,0.6,0.7-0.1,0.8-0.2
	c0.9-0.2,1.8-0.5,2.7-0.6c-3.5,0.6,2.9,0.3,0.8,0.1c-1.6-0.1,1.8,0.6,2.4,0.7c1.5,0.2-0.3-0.1-0.7-0.3c0.5,0.3,1.1,0.6,1.7,0.9
	s1.1,0.7,1.6,1c-1.2-0.8-1.1-1-0.1,0s1.8,1.8,2.6,2.8c-1.6-1.9,0.1,0.2,0.6,1.1s1.5,3.4,0.6,1c0.5,1.4,0.7,2.9,1.2,4.3
	c0.5,1.6-0.2-0.6-0.1-0.9c0,0.6,0.1,1.3,0,1.9s0,1.2-0.1,1.9c0-0.8,0.8-1.9,0-0.9c-0.2,0.6-0.4,1.2-0.5,1.8c0.1-0.3,0.8-1.9,0-0.1
	c-0.1,0.3-1.4,2-0.2,1.1c-0.5,0.4-3.7,2-1.7,1.2c-1.4,0.5-2.9,0.9-4.4,1.2c-2.6,0.6,0.6,0.2-2,0.3c-1.9,0.1-3.7,0.2-5.6,0.2
	c-1.6,0-3.2-0.1-4.8-0.2c-2.6-0.2,1.8,0.3-0.8,0c-0.8-0.1-1.6-0.3-2.4-0.4c-3.4-0.7-6.7-1.6-10-2.8c-4.7-2-9.2-4.5-13.4-7.6
	c-1.8-1.5-4.4-5.6-2.7-0.6c1.2,3.5-0.1,5.5-1.6,8.9c0.4-0.8,1.3-1.3,0.1-0.1c0.3-0.3,2.1-0.7,0.7-0.4s1.5-0.4,1.6-0.4
	c2-0.6,4.1-1,6.2-1.4c6.9-1,13.8-1.1,20.7-0.3c2.1,0.3,4.2,0.8,6.2,1.3c2.4,0.6,0,0.1-0.9-1.2c-1.5-2.1-1.5-4.3-0.8-6.5
	c0,0.1-1.3,2-0.4,0.9s-1,1.1-1.2,1.2c-1.1,1.1-0.2,0.3,0,0.1c-0.9,0.7-1.9,1.3-2.8,1.9c-1.1,0.7-2.2,1.2-3.3,1.7
	c-1.9,0.7-3.8,1.2-5.7,1.6c0.2,0-2.6,0.5-1.4,0.2c0.5-0.1,0.4-0.1-0.3,0c-2,0-0.9,0.3,3.4,0.9l5.4,5.4c1.8,2.8,0.6,4.5,0.7,1.7
	c0.2-3,0-1.5-0.1-0.8c0.2-1,0.4-2.1,0.8-3.1c-0.1,0.4-1.2,2.5,0.3-0.8c0.1-0.2,1.5-2.5,0.4-0.7c0.2-0.2,2-2.1,0.3-0.4
	c0.2-0.2,2.6-1.6,0.4-0.3c1.5-0.9,1.5-0.2-0.3-0.2s2.1,0.8,0,0c-1.8-0.7,0.3,0.4,0.4,0.4l-1.1-0.8l0.9,0.9c-0.5,0.2-1.1-2.1-0.1,0
	c0.3,0.7,2.3,5.2,1.3,2.5c0.7,2,1.3,3.9,1.8,5.9s0.9,3.8,1.3,5.7c0.5,2.6,0-1.7,0.1,1c0.1,1-0.3,2.2,0.1,2.1
	c-0.2,0.1,0.8-1.5,0.8-1.4c0.8-1.9-1.4,1.6,0,0c1.2-1.4-0.4,0.5-0.7,0.2c1.3-0.6,1.5-0.7,0.5-0.4s-0.8,0.3,0.7,0
	c-2.9,0-5.7-0.6-8.2-1.9c-1.7-0.8-3.4-1.6-5.1-2.5c-0.9-0.5-1.8-0.9-2.6-1.4s-3-1.1-1.2-0.6c-0.5-0.1-1.9-1.4-0.5-0.1
	c-2-1.8-0.5-1.4-0.3-0.6c0.4,2,0-0.3,0.1-0.8c-0.2,0.7-0.6,2.2,0.3-0.8c0.2-0.5,1.2-2.5,0.1-0.4c0.4-0.9,0.9-1.6,1.4-2.5
	c0.3-0.5,1.8-2,0.3-0.4c0.8-0.9,1.7-1.7,2.5-2.5c1.8-1.6-1.6,1,0.4-0.4c0.6-0.4,1.2-0.8,1.8-1.2c0.4-0.3,5.3-2.8,3-1.8
	c3.8-1.6,8.2-3,11.6-2.6c2.8,0.3-0.9-0.3,1.2,0.3c1.9,0.5-1.4-1.2,0.1,0.2s-0.4-0.5-0.7-0.8c-1.2-1.3,0.5,1.9,0,0.1
	c-0.2-1.1-0.2-2.1-0.1-3.2c0,0.5-1.3,2.1-0.3,0.9c-0.2,0.2-3.4,3-1.5,1.6c-0.8,0.6-1.7,1-2.5,1.5c-0.4,0.2-2.6,0.9-0.5,0.2
	c-1.6,0.5-3.3,1-5,1.3c-2.5,0.5,2-0.1-0.5,0c-1,0.1-2,0.1-3,0.1c-2.3,0-4.6-0.1-6.8-0.3c2.5,0.3-0.2,0-0.6-0.1
	c-1.4-0.3-2.7-0.5-4.1-0.8c-2.4-0.6-4.8-1.3-7.2-2.1c-2.3-0.8-6.8-3.9-8.9-5.1l-1.1-1.1l2.2,5.5c0.3,1.4-0.2,2.9-1.3,3.8
	c-0.7,0.7-0.4,0.4,0.7-0.8c-0.5,0.4-2,1.5,0.5-0.3l1.3-0.7c-1.1,0.4-1.2,0.4-0.2,0.1c0.9-0.3,1.9-0.6,2.9-0.8c2.4-0.5-3.2,0,1.2,0
	c0.5,0,2.9,0.3,0.5-0.1c1.5,0.3,2.9,0.7,4.3,1.2c7.4,2.6,16.8-3,18.5-10.5c1.9-8.4-2.6-15.6-10.5-18.5c-10.5-3.6-22-2.6-31.8,2.6
	c-11,5.9-19,18.1-14.9,30.7c3.8,11.6,16.6,18.3,27.2,22.4c9.3,3.5,19.1,5.2,29.1,5c11-0.3,21.6-3.5,30.2-10.5
	c9.1-7.5,14.5-20.1,10.7-31.8c-8-25-39.5-22.7-57.9-11.9c-18.7,11-32.3,39-13.4,56.6c7.2,6.7,18.5,12.1,28,14.4
	c10.8,2.6,23,1,31.2-7c9.5-9.2,9.3-21.7,6.7-33.7c-1.9-8.9-5.2-18.1-11.5-24.9c-7.7-8.2-19.6-11.2-30.3-7.5
	c-11.3,4.1-19.5,13.9-21.7,25.7c-1.1,5.5-1.7,11.9,0,17.3c2.6,8.3,10.3,13.3,18.8,13.4c10.7,0.2,22.2-4.2,30.7-10.5
	c9.7-7.2,17.1-18.9,13.5-31.4c-3.5-12-15.4-17-26.7-18.6c-11.3-1.7-22.8-1.6-34,0.4c-10.9,1.9-22.5,6.2-27.2,17.1
	c-10,23.1,23.7,40,41.4,44.5c19.6,5.1,45.8,4.5,58.3-14.1c11-16.4,5.8-39.9-8.8-52.3c-16.5-14.1-39.5-12.7-55.1,2.1
	c-7.6,7.3-12.2,17-13.1,27.5c-0.5,5.4,0.2,11.5,3,16.3c3.8,6.7,10.3,9.7,17,12.4c18.9,7.7,47.3,12.6,59-8.9
	c10.1-18.4,1.8-41.2-16.9-50.2c-19.2-9.2-43.2-6.7-59.1,7.9c-15.3,14.1-18.8,41.7-2.5,56.5c9.4,8.5,21.2,10.3,32.6,5.1
	c7.4-3.4,9.2-14,5.4-20.5C546.2,387.3,537.5,386.1,530.2,389.5L530.2,389.5z"/>
<path class="st1" d="M395.5,390.9c0.4-2.8,1.1-5.6,2.2-8.2c-0.5,1.1,2.7-4.3,2.1-3.6c0.6-0.8,1.3-1.5,2-2.2c1.2-1.1,1.5-1.3,0.8-0.7
	c-0.5,0.4-0.4,0.4,0.3-0.1c0.9-0.5,0.8-0.5-0.2,0.1l-1.1,0.1l-1.2-0.3c1.5,0.5,1.8,0.5,0.8,0.2c-1.9-0.6,2.7,1.5-0.1,0
	c0.7,0.4,1.5,1.6,0.5,0.3c1.7,2.4,1.3,2.3,2,5.2c0.4,2,0.6,4,0.5,6c0,1.1,0,2.2,0.1,3.3c0.2,3.4,0.8-1.2-0.4,1.7l3.9-6.6l3.1-1.4
	c1.4-0.3,1.2-0.5-0.6-0.4c-4.5-1.3,1.4,0.4-1.3-0.1c-1.2-0.2-2.5-0.5-3.7-0.9c0,0-4.7-1.7-2.1-0.6c-5.4-2.3-7.9-3.9-11.5-8.6
	c0.8,1.1,0.1,1-0.2-0.5l0.8,6.5c-2.6,3.6-3,4.5-1.2,2.5l-0.9,0.7l1.2-0.7l1.2-0.6c-1.6,0.7-1.4,0.7,0.6,0c6.7-1.5,10.2-2.6,17.1-2.5
	c4.9,0,9.8,0.7,14.5,2.1c3.9,1-1.3-1.1,2.2,0.8c0.9,0.5,1.8,1,2.7,1.5c-2-1.4,1.5,1.5,1.6,1.6c-1.9-2.2,1,2.5-0.4-0.9
	c0.3,0.8,0.6,4.4,0.5,1.1c0.1,0.9,0.1,1.7,0,2.6l0.1-1.5c-0.5,1.6-0.5,1.6,0-0.1l0.8-1c1.1-0.7,1.2-0.7,0.2-0.2l-0.6,0.4
	c1.2-0.6,1-0.6-0.7-0.1c2.8,0.3-2,0-2.2,0c-2.8,0-5.5-0.2-8.3-0.5c-5.7-0.9-11.2-2.5-16.6-4.6c1.3,0.5-1.3-0.6-1.2-0.5
	c-1.3-0.6-2.6-1.3-3.8-2.1c2,1.3-0.4-1.2-0.1,0.1c0.4,0.5,0.6,1,0.7,1.6c0.4,1.3,0.2,2.8-0.6,3.9c0-0.3,1.3-2.4,0.2-0.8
	c0.8-1,1.7-2,2.8-2.8c-2.2,1.8,0.1,0,0.8-0.3c2.3-1-3.4,0.8,0.7-0.4c1.3-0.4,2.5-0.7,3.8-1c-0.7,0.1-2.8,0.2-0.1,0.2h1.3
	c-1.8-0.3-1.9-0.3-0.1,0c1.4,0.5,1.6,0.5,0.7,0.1c-1-0.4-0.8-0.3,0.6,0.3l1.1,0.7c-1.3-1.1-1.4-1.1-0.2,0c1,0.8,0.7,1.8-0.2-0.3
	c0.3,0.8,1.4,4,0.5,0.7c0.2,0.7,0.4,1.5,0.6,2.3c-1-3.4-0.2-0.4-0.1,0.7c0.4,3.1,0.9-1.3,0.1,0.1c-0.3,0.9-0.6,1.8-0.8,2.8
	c0.8-1.8,0.8-2,0-0.5c1.1-1.3,1.3-1.6,0.6-0.8c-1,1.3-2.4,1-0.1,0.2c-5.3,1.8,1.2-0.1-1.9,0.7c-2.5,0.7-3.5,0.7-7,0.7
	c-5.5,0.2-11-0.6-16.2-2.5c-2-0.6-4-1.4-5.9-2.4c-0.9-0.5-1.8-1-2.7-1.5c1.3-0.3,2.8,4,2.7,5.3c-0.1,1.1-1.2,2.5-0.2,1.5
	c0.3-0.3,2.1-3,0.8-1.4c1.6-1.9,3.4-3.6,5.5-5c2.2-1.6,4.5-3.1,6.9-4.4c1.4-0.8,2.9-1.5,4.4-2.3c0.1,0,2.6-1.2,0.9-0.5
	c2.5-1,5.1-1.9,7.8-2.6c1.6-0.4,3.2-0.8,4.8-1.2c2.4-0.5,4.9-0.8,2.5-0.5c0.6-0.1,4.2,0.1,4.5-0.2c-1.6,1.5-3.9-2.6-4.8-3.2
	l-0.8-1.5c0.3,0.9,0.6,1.9,0.8,2.8c0.4,1.4,0.7,2.9,1,4.3c0.6,2.4,0.8,4.9,0.8,7.4c0,0.4-0.4,3,0,0.9c-0.2,0.9-0.4,1.9-0.7,2.8
	c0.7-1.3,0.6-1.2-0.2,0.4c-0.5,0.8-0.9,1.6-1.5,2.5c1.5-2.4-1.1,1.1-1.3,1.4c-1.5,1.8-1,1-0.2,0.4c-1.1,0.9-2.4,1.6-3.7,2.2
	c2.2-1,0-0.2-0.4,0c-3.3,1.4,2,0.4-1.5,0.3c0.1,0-4.3-0.3-2.1,0c1.6,0.2-2.8-0.8-3.3-1c3,1.1-3.8-3.1-1.5-1c-0.3-0.3-3-3.5-1.2-1
	c-0.5-0.8-1-1.5-1.4-2.3c1.4,2.7-0.2-1-0.3-1.5c0.2,0.7,0,2.9,0-0.1c0-0.6,0.7-4.6-0.1-1.4c0.3-1.3,0.6-2.7,1.1-3.9
	c-1.2,3,0.8-0.9,1-1.2c-1.6,2.2-0.1,0.1,0.3,0l1-0.9c-1.2,1-1.2,1,0.3,0.1l-1.2,0.5c0.6-0.2,1.2-0.4,1.9-0.6c1-0.3,3.5-0.1,0.5-0.2
	c0,0,4.2,0.1,1.9-0.1s1.8,0.5,1.8,0.5c1.6,0.6,1.6,0.6,0,0c0.6,0.3,1.1,0.6,1.7,1l0.5,0.4c-1.3-1-1.4-1-0.1,0.2
	c-0.8-2.5,1.1,2,1.2,2.2c-0.3-0.6-0.6-2,0.4,1.1c0.5,1.6,1,3.2,1.4,4.9c0.2,0.9,0.4,1.9,0.7,2.8c1.1,4,0.2-2.4,0.3,1.8
	c0,1,0.1,1.9,0,2.9c0.3-1.6,0.3-1.6-0.1,0.1c0.8-1.4,0.8-1.4-0.1,0.1c0.3-0.3,1-1.1,1.4-1.5l1-0.4c-1.7,0.4-1.8,0.5-0.2,0.3
	c-1.2,0.1-2.5,0.2-3.7,0.1c-0.6,0-3.9-0.3-1.2,0c-6.9-1-13.7-2.4-20.4-4.2c-3.6-0.9-7.3-1.8-10.8-2.9c-0.1,0-4.5-1.9-2.2-0.8
	c-2.1-1-0.5-0.9,0,0.3c0.2,0.6,1.1,4,0.4,0.6v-1.5c-0.3,1.6-0.2,1.5,0.2-0.4c-0.1,0.3,1.4-4.2,0.7-2.4c-0.3,0.8,1.6-2.8,2-3.5
	c2.3-3.8-0.9,0.8,0.9-1.1c1.2-1.3,2.4-2.5,3.8-3.6c-1.9,1.4,0.8-0.4,1.3-0.6c2.1-1.2,1-0.8,3-1.5c4.8-1.7,10-1.9,14.9-0.6
	c1,0.3,2,0.6,3,0.9c1.7,0.6,1.9,0.7,0.7,0.3c0.9,0.5,1.8,1,2.6,1.5c-1.6-1.1,0.2,0.2,0.5,0.5c1.2,1.3,1.4,1.5,0.5,0.5
	c0.8,1.6,1,1.8,0.5,0.6c1.3,2.9,1.7,6.1,2.4,9.1c0,0.2,0.5,2.9,0.2,0.9c0.1,0.6,0.1,6.2,0.2,4c0,0.2-0.7,3-0.1,0.7
	c-0.9,1.5-1,1.6-0.1,0.3c-1.3,1.2-1.3,1.3-0.2,0.3c-0.8,0.5-1.6,1-2.4,1.4c2.4-1.2-2.4,0.6-3.1,0.7c1-0.1,1.6,0-1.2-0.1
	c-1.5,0-3-0.1-4.5-0.2c-1.6-0.2-3.1-0.6-4.7-0.9l-3.7-0.8c-4-1.2-2.2,0.8,5.3,6v8c0-0.2,1.3-4.3,0.4-2.1c0.6-1.4,1.2-2.8,1.9-4.2
	c1.2-2.6,2.6-5.1,4-7.5c1.4-2.4,3-4.8,4.7-7.1c-1.4,1.9,1.2-1.4,1.5-1.7c1-1.1,2-2.2,3.1-3.3s2.2-2.1,3.4-3
	c-1.8,1.5,1.6-1.1,1.8-1.2c1.1-0.7,2.1-1.3,3.2-1.9c0.7-0.4,1.3-0.7,2-1c-1.1,0.4-1.1,0.4-0.1,0.1c1.2-0.4,2.4-0.8,3.6-1
	c-1.5,0.1-1.4,0.2,0.4,0.1l-1.1-0.3c1.5,0.4,1.8,0.5,0.9,0.1c-0.4-0.1-0.8-0.4-1.2-0.7c-0.6-0.9-0.6-0.9,0,0
	c0.4,0.7,0.8,1.4,1.1,2.1c-1-2.2,1,2.8,0.9,2.6c0.5,1.5,1.1,3,1.6,4.4c0.9,2.6,1.5,5.2,2,7.9c0.1,0.7-0.2,5,0.2,2
	c-0.2,1.4-0.6,2.7-1.1,4c0.5-1.3,0.6-1.4,0.1-0.5c-0.5,0.9-0.4,0.9,0.4-0.2l-0.9,1c1.3-0.9,1.3-0.8-0.2,0.1c1.7-0.5-1.5,0.3-1.9,0.4
	c-1,0.2-1.1,0.2-0.2,0.1l-2.7,0.3c-3.6,0.3-7.3,0.7-10.9,1c-7.9,0.7-15.9,1.2-23.9,1.6l14.5,11l0.3,0.9l-2,7.6l0.6-1.5
	c3.2-7.4,2.2-16.1-5.4-20.5c-6.3-3.7-17.3-2.1-20.5,5.4c-2.4,5.6-3.4,10.1-1.9,16.2s8.1,11.4,14.5,11c14.7-0.8,30.3-0.9,44.8-3.8
	c15.4-3.1,24.8-16.1,26.1-31.3c0.6-6.5-0.7-13.3-2.7-19.6c-2-6.5-4.3-13.5-8.2-19.1c-10.1-14.4-27.7-14.2-42.3-7.2
	c-11,5.4-19.7,14.4-26.7,24.2c-3.2,4.6-6,9.5-8.3,14.7c-3.7,8-7.7,16.5-3,25.1c3.7,6.8,10.6,9.3,17.7,10.8c8.8,1.8,17.5,3,26.4,1.2
	c13.1-2.6,24.7-12.4,27.2-25.9s-1.4-31.4-10.8-41.7c-9.1-10-24.3-14.5-37.5-13.9c-13.7,0.6-27.1,6-36.3,16.4s-15.1,25.5-10.5,39.1
	c5.2,15.3,20.9,19.1,34.9,22.5c12.7,3.1,28.1,7.6,41,2.9c16-5.9,20.1-21.9,17.4-37.3c-2.2-12.9-8-26-20-32.6
	c-11.4-6.2-26.5-6.1-37.4,1.3c-10.9,7.5-17,20.1-16.2,33.3c1.9,28.4,35.9,45.5,59.8,29.4c11.7-7.7,18.9-20.6,19.4-34.6
	c0.5-14.4-4.2-34.6-20.1-38.8c-12.9-3.4-27.9,1.5-39.6,6.6s-24.4,13.3-30.9,24.5c-3.7,6.3-5.4,13.8-3.4,21c2.4,8.5,9.4,13.4,17,16.9
	c12.2,5.6,25.8,8.5,39.2,7.2c15-1.4,28-8.2,32.6-23.3c3.5-11.4,0.5-25.3-7.9-33.9c-9.1-9.4-23-12.3-35.4-8.9
	c-13.6,3.7-26.8,15.8-27,30.7c-0.2,16.4,14.5,24.5,27.9,29.5c12.5,4.6,28.2,7.5,41.4,4.5c15-3.5,23.9-17.2,21.9-32.2
	c-2-14.8-13.3-24.7-26.8-29.4c-13.3-4.7-28.5-4.5-42.2-1.8s-28.7,10-29.5,25.9c-0.8,13.8,14.2,26,25.5,31.3
	c12.5,5.9,32.9,10.7,42.2-2.8c4.5-6.4,4.4-14,3.9-21.5s-1.9-15.1-5.7-21.7c-7.9-13.8-25.3-20.6-39.8-12.7
	c-11.7,6.4-19.6,20.2-21.8,33c-1.3,7.7,2,16.5,10.5,18.5C384.2,403,394,399.2,395.5,390.9L395.5,390.9z"/>
<path class="st1" d="M214.2,401.4c1.3-6.4,0.9-13-1.1-19.1c-0.8-2.4-1.7-4.6-2.4-7c-0.3-0.9-0.6-1.9-0.8-2.8c0.1,1.6,0.1,1.5,0-0.3
	c-0.3,1.4-0.4,1.6-0.1,0.5c0.1-1.9-1.6,2.1,0.3-0.8c1.7-2.6,0.4-0.7,0.2-0.3l1-1c-1.3,0.8-1.2,0.8,0.3-0.2c0.8-0.5,1.6-1,2.4-1.3
	c-1.8,0.7,3.6-0.8,3.1-0.7c0,0,2.8-0.5,1.2-0.3c3.5-0.4,7-0.5,10.5-0.4c5.9,0,8.5,0.1,13.7,1.5c1.4,0.3,2.7,0.8,4,1.3
	c-1.5-0.7,0.9,0.6,1,0.6s4.2,3,1.8,1c1.1,0.9,2.1,1.9,3,3c-1.9-2.2,2.1,4.9,1.1,1.8c0.3,0.9,0.5,1.8,0.8,2.6c-0.8-3,0,0.6-0.1,1.4
	c0-0.8,0.8-2.5-0.1,0c-1.4,4,0.9-1.2-0.4,0.8s1.9-2.9-0.5,0.6c-1.5,2.2,1.1-0.2-1.2,1c-1.2,0.7-2.4,1.4-3.7,2
	c0.7-0.3,2.3-0.7-0.4,0.1c-2.3,0.6-4.6,1.2-6.9,1.7c2.7-0.6,0.3,0-0.4,0c-1.6,0.1-3.1,0.2-4.7,0.3c-1.1,0-2.1-0.1-3.2-0.1
	c-1.9-0.2-2.1-0.2-0.7,0c-0.8-0.1-1.5-0.3-2.3-0.5c-1.3-0.3-2.5-0.6-3.7-1c1.9,0.7-0.3-0.1-0.6-0.3s-3.9-3-1.8-1.1
	c-0.6-0.6-1.2-1.2-1.8-1.9c2,2.5-0.3-0.9-0.5-1.4c0.8,1.7-0.3,1,0.1-0.1l-0.3-1.3c0.1,1.7,0.2,1.9,0.1,0.8c-0.3-4,0.2,1.3,0-1.6
	l-0.3,0.6c-0.5,1-0.4,0.8,0.3-0.5l-0.9,1c1.2-1.2,1.5-1.5,0.9-1c-1.6,0.8,3.1-1.7,2.6-1.4c-1.8,0.9,1.2-0.5,1.7-0.7
	c2.3-0.8,4.6-1.6,7-2.2c1.6-0.4,3.2-0.8,4.8-1c-2.4,0.3,2.3,0,2.4,0c1.1,0,2.1,0,3.2,0.1c-2.8-0.3,2,0.6,2.1,0.6
	c-1.9-0.6,0.4,0.2,0.7,0.3c3.6,1.5-1-1.2,1.7,1.2c0.3,0.3,1.7,2.1,0.4,0.3c-0.1-0.2,2.1,3.8,1.3,2s0.7,2.5,0.6,2.3
	c-0.6-2.7,0,1.1-0.1,1.7c0.1-3-0.4,1.1-0.5,1.6c0.8-2.3-0.6,1-1,1.6c1.2-1.9-0.1,0-0.3,0.4c-1.3,1.2-1.4,1.3-0.2,0.5
	c-0.6,0.4-1.3,0.8-1.9,1.1c-2,1.1,2.7-0.4-1.3,0.4c-3.8,0.7,1.9,0.5-1.9,0.1l-1.5-0.1c1.5,0.1,1.4,0-0.4-0.4
	c2.1,1.7-2.1-1.6,0.3,0.4c-0.7-0.6-1.4-1.3-2-2c0.9,1.2,0.9,1,0-0.4c0.4,1.2,0.5,1.4,0.1,0.4c-0.2-0.7-1.3-3.6-0.4-0.8
	c0.1-1.6,0-1.9-0.1-0.8c-0.2,1.1-0.1,0.8,0.2-0.8l-0.5,1c0.9-1.5,0.9-1.6,0-0.4l1-1c-1.3,0.8-1.2,0.7,0.3-0.2
	c2.5-1.9,0.6-0.5,0.2-0.2c1.8-0.4,1.8-0.5,0.1-0.1c2.7,0.1,1.9-0.1-2.5-0.8l-6.9-9l0.7-6.5c-0.4,0.9-0.8,1.8-1.2,2.7
	c-0.4,0.9-0.9,1.7-1.4,2.6c-1.5,2.6-0.4,0.2,0.6-0.1c-1.6,0.5-1.2,0.1-0.1,0.1c3.1,0.2,2.3-0.5,5.4,1.9c1.9,1.5,3.4,2.2,3.4,4.8
	c0,0.9-0.2,1.9-0.7,2.7c-0.7,1.1-3.9,2.4-0.9,1.2c0.5-0.2,2.8-0.3,0.6-0.2c1.3-0.1,2.6-0.1,3.8,0.1c2.5,0.2-2.9-1.1,1.3,0.3
	c1,0.3,2,0.5,2.9,0.9c-2.5-1.1,1.8,1.2,1.8,1.3c-1.7-1.3,0.2,0.4,0.4,0.6c-1.5-2.4,0.7,1.3,0.8,1.5c-1.1-2.3,0,0.5,0.2,1.5
	c-0.6-3-0.1-0.2-0.1,0.7s-0.8,3.5,0,0.7c-0.2,0.9-0.5,1.8-0.7,2.6c0.9-2.9-0.5,0.9-0.8,1.4s-1.7,2.2-0.1,0.3
	c-0.1,0.1-3.3,3.1-1.2,1.5c-0.8,0.6-1.6,1.1-2.5,1.6c-2.5,1.6,0.9,0.1-1.8,0.8c-1.4,0.4-2.9,0.7-4.3,1c0.9-0.1,2.3-0.1-0.4-0.1
	c-1.5,0-3,0-4.5-0.2c0.8,0.1,2.3,0.5-0.4-0.2c-1.2-0.3-2.4-0.6-3.6-1.1c-2.4-0.9,2.7,1.6-1.4-0.6c-0.9-0.5-1.8-1-2.7-1.5
	s-1.7-1.1-2.6-1.7c1,0.8,0.8,0.6-0.6-0.5c-1.7-1.6-3.4-3.3-4.9-5c-0.3-0.4-2.3-2.9-1.1-1.2c-0.6-0.8-1.2-1.7-1.8-2.6
	c-1.5-2.2-2.8-4.5-3.9-6.9c1,2.2-0.9-2.8-0.8-2.5l-0.4-1.6c0.1,1.4,0,1.1-0.1-0.7c-0.7-3.9-0.4,0.7,0-1.5c0.4-2.6-1.3,2.5,0.4-1.3
	c1.1-2.4,0.8-1,0.2-0.4c0.1-0.1,3.6-3.1,1.3-1.5c2-1.5,4.2-2.7,6.5-3.6c-0.7,0.3-2.1,0.6,0.6-0.1c1.8-0.5,3.5-1.1,5.3-1.6
	c11.5-3.1,23.6-3.1,36.2-2.9c1.2,0,2.5,0.1,3.7,0.1h1.4c-4.9-0.6-7.6-2.9-8.1-6.7c-1.2-4.3-0.6-0.9-0.6,0.4c0.1-2.6,0,0.1-0.1,0.6
	c-0.6,2.8-1.1,5.6-1.9,8.4c-0.7,2.3-2.2,6.8-2.6,7.7c-1.4,3.2-3,6.2-4.8,9.1c-0.6,1-1.2,1.9-1.9,2.9c-1.8,3,0.6-0.2-1.4,2
	c-1,1.2-2,2.3-3.2,3.2c0.9-0.7,0.9-0.8,0-0.2s-0.8,0.5,0.2-0.1l1.1-0.1c1,0.3,0.9,0.3-0.1,0s-1.1-0.3-0.3,0c-1-0.5-2-1.1-3-1.7
	c-1-0.6-1.9-1.3-2.8-1.9c-1.4-1.1-1.7-1.3-0.8-0.5c-0.6-0.5-1.2-1-1.8-1.5c-2.9-2.5-2.3-1.9-4.1-5c0.4,0.6,0.2,2.3,0.3,0.6
	s-0.6,1.2-1.2,1.9c-0.6,0.7-1.5,1.2-2.4,1.4c-1.1,0.2-2.2,0.2-3.2-0.2c-1.7-0.9-1.9-0.8-0.4,0.1c6.5,4.8,16.8,1.1,20.5-5.4
	c4.5-7.6,1.1-15.7-5.4-20.5c-9.3-6.9-23-4-30.7,3.8c-9.1,9.2-8.8,24.2-2.6,34.8c4.9,8.4,14,15.6,22.6,20c11.7,6,24,4.8,34.2-3.4
	c15.5-12.4,24-35.8,25.8-55c1.3-13-6.7-23.4-19.8-24.8c-9.6-1-19.9-0.5-29.5,0.3c-19.2,1.7-43.9,6.6-53.6,25.7
	c-9.9,19.7,1.6,42.7,16.1,56.8c14.1,13.6,35.1,20.6,54.1,13.3c19.1-7.4,31.8-29.1,24.2-49.3c-7.6-20.4-35.3-31.4-54.7-20.2
	c-10.3,5.9-15.8,18.1-12.2,29.7c3.8,12.3,17.5,18.1,29.3,14.2c10.5-3.4,17.7-13.4,20.9-23.6c2.4-7.7,0.5-16.1-6.7-20.7
	c-5.6-3.6-12.3-3.9-18.7-2.6c-22.3,4.5-31.9,31.5-19.3,49.7c13,18.9,42,19.8,56.4,1.9c14.1-17.5,10.3-43.8-9.3-55.6
	c-9.6-5.8-20.6-6.3-31.4-4.6c-9.9,1.5-20.9,5.2-28.6,11.8c-16.9,14.5-11.1,40.6,5.6,52.5c15.8,11.3,39.6,9.9,56.5,1.8
	c19.4-9.3,26.6-32.6,15.1-51.1c-11.4-18.2-32.8-23.1-52.9-22.6c-10.6,0.2-21.9,1.7-30.7,8c-9,6.5-15.4,16.5-14.7,27.9
	c0.4,4.7,1.5,9.4,3.2,13.9c0.6,1.6,1.2,3.2,1.6,4.9c0.1,0.4,0.6,3.3,0.4,1.5c-0.2-2.2-0.6,3.2,0.1-0.4c-1.5,7.7,2.2,16.6,10.5,18.5
	c7.4,1.7,16.8-2.2,18.4-10.5L214.2,401.4z"/>
<path class="st1" d="M77.5,377.5c-3.7,0.3,2.5,1,4.1,2s-0.5-1.9,1,1c1.4,2.7,0.3,1.2,0.2,0.3c-0.6-3.9,0,2.3,0-0.2v-0.6
	c-0.4,2.1-0.3,2.2,0.1,0.3c-0.2,0.1,1.7-3.1,0.1-0.3c0.4-0.8,0.9-1.6,1.5-2.4c-2.1,2.9,2.6-2,1-0.8s2.2-1.2,2-1.1
	c-0.5,0.3-2.6,1,0.3-0.1c2.4-0.9,1.1-0.4,0.1-0.2c-0.1,0,4.4,0,2.2-0.1s2.1,0.6,2.1,0.6c-2.2-0.6-0.3-0.2,0.3,0.1
	c-0.2-0.1,3.5,2.4,2,1.2c-1.7-1.4,2.6,3,1.2,1.3c-1.2-1.5,1.1,2.1,1.1,2c-1-2.2,0,0.2,0,0.6c0-2.6-0.2,0.8,0,1.4
	c0.3,1.5,0.1-0.2,0.4-1c-0.2,0.4-1.6,2.2-0.3,0.6c1.1-1.3,0.3-0.1-0.5,0.3c-3,1.7,1.6,0.1-2,0.7c-0.6,0.1-4.8,0.7-2,0.5
	c-2.3,0.2-4.5,0.3-6.8,0.2c-1.8,0-3.5-0.1-5.3-0.3c0,0-2.8-0.4-1.3-0.1c-2.6-0.4-5.2-1-7.8-1.8c-1.4-0.4-2.8-0.9-4.2-1.4l-1.7-0.6
	c1.5,0.7,1.5,0.6,0-0.2c1.2,1.1,2.2,2.5,2.8,4.1c1.7,6.3-0.9,2.5-0.9,5.5c0,0.5-3.1,1.9,0.2,0c0.3-0.2,2.6-1,0.7-0.3
	c4.6-1.6,10.1-2.8,13.5-2.5c1.2,0.2,2.4,0.5,3.6,0.8c3.9,0.9-1.9-1.2,1.6,0.8c0.4,0.2,2.3,1.6,0.4,0.1c0.7,0.6,1.4,1.3,2,2
	c-1.7-1.8,0.1,0.2,0.5,0.9l0.3,0.6c-0.6-1.5-0.6-1.4-0.1,0.3c1.3-2-2.2-0.4-0.1,0c0.3-1.8,0.3-1.8-0.1,0l0.5-1.1l-0.6,1.2l0.4-0.4
	c-0.6,1,2.1-0.2-0.5,0.5c0.3-0.1,2.7-0.7,2.6-0.6c-2.4,1.5-2-0.5-1-0.1c1.8,0.7-2.7-1.6-2.5-1.5c0.5,0.3,2.1,1.5-0.3-0.4
	c-3.1-2.3-0.5-0.3-0.5-0.2c-0.9-1.6-1-1.6-0.4-0.2l-0.4-1.3c0.1,1.1,0,2.3-0.3,3.4c0.1-0.6,1.7-2.1,0.2-0.4c2-2.4,0.9-0.6,0.4-0.3
	c3.5-1.8-1.1,0,1.5-0.4c2.7-0.4-3-0.2,1.9-0.1c0.1,0,2.9,0.2,1.2,0c2.5,0.4,5,1,7.5,1.9c-1.7-0.7,2.8,1.4,2.4,1.2
	c0.9,0.5,1.8,1,2.6,1.6c-1.6-1.3,0.3,0.4,0.4,0.6l1,1.1c-0.9-1.1-0.9-0.9,0,0.5l-0.2-0.5c-0.4-1-0.3-0.7,0.1,0.8
	c1.8-3.1-1.3-0.2,0,0v1.3c0.2-1.6,0.2-1.8,0-0.7c-0.3,1.3,1.2-1.2,1.7-1.7c-1,1.3-1.5,0.9-3.8,1.5c-4.6,1.4,0.6,0.1-2.2,0.4
	c-1.5,0.2-3.1,0.2-4.6,0.2c-4.6-0.1-9.8-1.4-15.3-3.3c-4.4-1.5-8.8-3.3-13-5.3c-2.2-1-4.3-2-6.4-3.2c-3.1-1.8-2.8-1.3-4.9-3.9
	c1.4,1.8-0.1-0.3-0.1-0.6c0.6,3.2-0.4-2.1,0,0.1c0.3,1.6,0.9-2.6,0,0.3c-0.8,2.3-0.1-0.1,0.1,0.1l-0.8,1.1c1.1-1,1.2-1.2,0.4-0.5
	c-1.8,0.5,1.6-0.9,1.8-1c0.5-0.3,2.5-1,0.2-0.1c1.3-0.5,2.6-0.9,3.9-1.2c4.5-1.1,9.1-1.8,13.7-1.9c3.2-0.1,6.3-0.1,9.5,0
	c1.2,0.1,2.5,0.1,3.8,0.2c-3.3-0.4,1.2,0.6,1.6,0.5c-2.1,0.4-5.1-4.8-4.8-5.1c0.5-0.6-0.5,2.8-0.2,0.9c-0.4,2.5-1,5-1.8,7.4
	c-0.5,1.8-1.1,3.5-1.9,5.1c-1.4,2.8-2.9,5.5-4.7,8c-1,1.3-2,2.5-3.2,3.7c-2,2.1-1,0.8-0.4,0.4c-2.2,1.8-1,0.1,0.2,0.2h0.6
	c-1.8-0.1-1.9,0-0.3,0.2c-0.8,0.3-2.2-0.6-0.5,0.1c0.2,0.1-3.7-2.3-2.1-1.2c0.2,0.1-0.5-0.7-0.6-0.9c-0.3-0.5-1.7-3.4-0.9-1.3
	c-0.4-1-0.7-2-0.9-3c0.1,0.4-0.8-4.6-0.6-2.6s-0.1-2.7-0.1-2.5c0-1.8,0-3.7,0.3-5.5c-0.4,3.4,0.3-1.1,0.4-1.5c0.3-1.4,0.8-2.6,1.2-4
	c0.1-0.5,1-2.7,0-0.3c0.6-1.3,1.2-2.5,1.8-3.7c0.4-0.8,0.9-1.6,1.4-2.4s1-1.5,1.5-2.3c-0.8,1-0.9,1.1-0.2,0.3
	c1.6-1.9,3.4-3.7,5.3-5.3c-0.5,0.4-2.2,1.4,0.2-0.1c1.2-0.7,2.3-1.4,3.5-2.1c3.4-2.2-1.5,0.4,0.7-0.4c1.3-0.5,2.6-0.9,3.9-1.2
	c0.7-0.2,3.6-0.5,1-0.3c1.6-0.1,3.2-0.1,4.8,0c-2.1-0.2,0.4,0.1,0.8,0.2c2.9,0.4-0.1-0.3,2.3,0.8c4.3,1.9-0.8-0.6,1.1,0.7
	c0.5,0.4,1,0.9,1.4,1.4c-0.9-1.2-1-1.3-0.4-0.4c0.6,0.9,1.1,1.9,1.6,2.9c-1.3-2.9,0.2,1,0.3,1.4c0.2,0.9,0.4,1.8,0.6,2.6
	c0.8,3.3,0.1-1.7,0.2,1.5c0.2,5.2,0.1,10.3-0.2,15.5c-0.2,2.9-0.1,0.8,0.1,0.1c-0.2,0.9-0.4,1.8-0.6,2.7c0.7-1.3,0.7-1.5,0.2-0.5
	l-0.3,0.6c0.8-1.4,2.1-2.5,3.5-3.2l1.1-0.3c-1,0-1.9-0.1-2.9-0.2c0.7,0.1,2.2,0.4-1.3-0.2c-1.8-0.3-3.5-0.7-5.2-1.1
	c-2.8-0.7-5.5-1.6-8.2-2.7c-7.4-3.3-16.1-2.1-20.5,5.4c-3.8,6.4-2.1,17.2,5.4,20.5c18.5,8.2,47.8,16.1,56.7-9
	c2.6-7.5,2.7-16.8,2.4-24.7c-0.3-8.6-1.9-17.1-5.9-24.7c-9.6-18-32.8-23.4-51-16.2c-16.6,6.7-28.7,20.4-34.2,37.3
	c-5.7,17.5-3,40.2,12.1,52.2c8.2,6.5,19.2,9.3,29.3,6c9.9-3.3,17.1-11.8,22.4-20.5c5-8.1,8.3-17.2,9.8-26.6c1-6.2,1.4-12.3-1.2-18.2
	c-2.8-6.2-7.9-10.1-14.3-12.5c-8.8-3.2-20-2.6-29.1-1.7c-9.7,1-19.9,2.5-28.5,7.5c-8.8,5.2-14.9,14.1-15.2,24.4
	c-0.4,11.5,6.4,21.4,15.3,28c7.4,5.5,16.6,9,25.2,12.3c9.3,3.7,19.2,6.3,29.2,6.5c10.5,0.2,22.7-2.4,30.3-10.1s9.9-18.7,7.3-28.9
	c-4.9-19.4-28.4-31-47.3-29.1c-11,1.1-21.5,6.3-26.8,16.5c-5.6,10.9-3.1,22.9,4.6,32c6.6,7.8,17.4,13.4,27.7,12.8
	c10.4-0.8,19.6-7.1,24-16.7c9.3-20-4.8-42.1-25.4-46.9c-19.6-4.6-51.7,2.7-53,27.2c-1.3,23.8,32.2,29.2,49.7,28.9
	c10.3-0.2,20.9-2.4,28.7-9.4c8.5-7.6,11.2-19.5,8.8-30.4c-4.3-19.8-26.1-32.3-45.4-27.2c-18.3,4.8-32.5,25.1-25.9,43.9
	c3.4,9.7,12.3,17.9,23.1,17c7.8-0.6,15.4-6.5,15-15C92.2,385,86,377,77.5,377.5L77.5,377.5z"/>
<path class="st0" d="M304.8,52l21.8,12.3"/>
<path class="st0" d="M452.1,45.8l-20.9,13.7"/>
<path class="st0" d="M305.2,154l21-13.6"/>
<path class="st0" d="M445.3,132.9l24.3,5.9"/>
</svg>
