<svg id="Camada_1" data-name="Camada 1" xmlns="http://www.w3.org/2000/svg" xmlns:xlink="http://www.w3.org/1999/xlink" viewBox="0 0 572 182"><defs><style>.cls-1,.cls-4,.cls-5{fill:#e6e6e6;}.cls-2{fill:url(#Gradiente_sem_nome_13);}.cls-3{fill:url(#Gradiente_sem_nome_25);}.cls-4,.cls-5{font-size:52.43px;}.cls-4{font-family:JTMarnie-Regular, JT Marnie;}.cls-5{font-family:JTMarnie-Bold, JT Marnie;font-weight:700;}.cls-6{letter-spacing:-0.01em;}.cls-7{letter-spacing:-0.04em;}</style><linearGradient id="Gradiente_sem_nome_13" x1="-17.3" y1="43.1" x2="115.69" y2="119.88" gradientUnits="userSpaceOnUse"><stop offset="0" stop-color="#f2f2f2" stop-opacity="0"/><stop offset="0.86" stop-color="#818181" stop-opacity="0.09"/><stop offset="1" stop-opacity="0.2"/></linearGradient><linearGradient id="Gradiente_sem_nome_25" x1="152.16" y1="60.53" x2="278.29" y2="186.65" gradientUnits="userSpaceOnUse"><stop offset="0" stop-opacity="0.2"/><stop offset="0.14" stop-opacity="0.09"/><stop offset="1" stop-opacity="0"/></linearGradient></defs><title>Prancheta 1</title><polygon class="cls-1" points="80.03 181.58 80.09 181.61 80.03 181.61 5.17 4.47 58.5 4.47 106.7 118.51 80.03 181.58"/><polygon class="cls-2" points="79.99 181.58 80.05 181.61 79.98 181.61 5 4.47 58.42 4.47 106.7 118.51 79.99 181.58"/><polygon class="cls-1" points="283.36 181.58 283.3 181.6 230.2 181.61 160.86 181.61 181.61 132.48 209.27 132.48 181.69 67.24 208.22 4.47 208.5 4.47 262.6 132.47 283.36 181.58"/><polygon class="cls-3" points="283.36 181.58 283.3 181.6 230.2 181.61 160.86 181.61 181.61 132.48 209.27 132.48 181.69 67.24 208.22 4.47 208.5 4.47 262.6 132.47 283.36 181.58"/><polygon class="cls-1" points="208.22 4.47 181.69 67.24 133.36 181.61 80.09 181.61 80.03 181.58 106.7 118.51 154.89 4.47 208.22 4.47"/><text class="cls-4" transform="translate(299.71 126.86)">VIDEO</text><text class="cls-5" transform="translate(300.13 181.77)"><tspan class="cls-6">A</tspan><tspan x="37.68" y="0">CADEM</tspan><tspan class="cls-7" x="232.63" y="0">Y</tspan></text></svg>