<svg id="Camada_1" data-name="Camada 1" xmlns="http://www.w3.org/2000/svg" viewBox="0 0 340 58"><title>Prancheta 1</title><path d="M12.26,54.59V6.47H3.79a.94.94,0,0,1-.94-1v-2a1,1,0,0,1,.94-1.16H25.17a1,1,0,0,1,1,1.13v2a.94.94,0,0,1-1,1H16.65V54.59c0,.79-.45,1.16-.94,1.16H13.28A1.07,1.07,0,0,1,12.26,54.59Z"/><path d="M31.39,54.44V3.55a1.13,1.13,0,0,1,1.13-1.28h2.18c.75,0,1.09.53,1.09,1.28v50.9c0,.79-.3,1.31-1.09,1.31H32.51C31.72,55.76,31.39,55.23,31.39,54.44Z"/><path d="M41.06,54.44,52.76,3.21a1.06,1.06,0,0,1,1.13-.94H56a1.09,1.09,0,0,1,1.13.94L68.81,54.44a1,1,0,0,1-.94,1.31H65.51a1.16,1.16,0,0,1-1.12-.9l-2.48-11.7H48l-2.48,11.7a1.17,1.17,0,0,1-1.16.9H42A1,1,0,0,1,41.06,54.44Zm20-15.34L55.16,11.39l-.23-2.93-.23,2.93L48.86,39.1Z"/><path d="M76.35,53.24a11.47,11.47,0,0,1-3.71-8.63V13.49a11.79,11.79,0,0,1,3.64-8.63,12.49,12.49,0,0,1,8.66-3.38,11.39,11.39,0,0,1,8.85,3.83,12.67,12.67,0,0,1,3,8.25v2.66c0,1.09-.26,1.42-1.05,1.42H93.56c-.86,0-1.09-.3-1.09-1.39V13.64A8.26,8.26,0,0,0,90.3,8a7.31,7.31,0,0,0-5.4-2.36A7.61,7.61,0,0,0,79.35,8,8,8,0,0,0,77,13.6V44.43a7.73,7.73,0,0,0,2.44,5.7,8,8,0,0,0,5.44,2.21A7.74,7.74,0,0,0,90.41,50a7.9,7.9,0,0,0,2.25-5.51V34.12H87.37c-.64,0-1.16-.23-1.16-1V31.3a1.05,1.05,0,0,1,1.16-1.12h8.51c.79,0,1.13.52,1.13,1.31V44.62a11.64,11.64,0,0,1-3.49,8.51,12.19,12.19,0,0,1-8.63,3.41A12.48,12.48,0,0,1,76.35,53.24Z"/><path d="M108.11,53.13a11.71,11.71,0,0,1-3.6-8.51V13.49a11.79,11.79,0,0,1,3.64-8.63,12.49,12.49,0,0,1,8.66-3.38,12.79,12.79,0,0,1,8.7,3.38,11.9,11.9,0,0,1,3.6,8.63V44.62a11.58,11.58,0,0,1-3.6,8.51,12.6,12.6,0,0,1-8.74,3.41A12.35,12.35,0,0,1,108.11,53.13ZM122.44,50a7.77,7.77,0,0,0,2.29-5.51V13.6A8,8,0,0,0,122.44,8a7.78,7.78,0,0,0-5.63-2.33A7.69,7.69,0,0,0,111.22,8a8,8,0,0,0-2.33,5.59V44.5a7.87,7.87,0,0,0,7.88,7.84A8,8,0,0,0,122.44,50Z"/><path d="M139.87,53.06a12.7,12.7,0,0,1-4.28-9.83V14.8a13,13,0,0,1,4-9.56A14.8,14.8,0,0,1,150,1.41c4.8,0,8.29,1.69,10.58,4.24A14.09,14.09,0,0,1,164,15V18.7c0,1.2-.26,1.65-1.28,1.65h-7c-.94,0-1.24-.41-1.2-1.5V15.32a5,5,0,0,0-1.24-3.26,4.46,4.46,0,0,0-3.38-1.5,4.54,4.54,0,0,0-3.41,1.39,4.72,4.72,0,0,0-1.31,3.26V42.67a4.74,4.74,0,0,0,4.84,4.8A4.4,4.4,0,0,0,153.45,46a5.1,5.1,0,0,0,1.24-3.34V38.09c0-1.16.34-1.5,1.2-1.5h7c.94,0,1.27.26,1.27,1.43v5.21A12.79,12.79,0,0,1,160,53.06a14.84,14.84,0,0,1-10,3.56A15.38,15.38,0,0,1,139.87,53.06Z"/><path d="M173.09,53a12.69,12.69,0,0,1-4.28-9.71V14.8A12.7,12.7,0,0,1,173.09,5a15.28,15.28,0,0,1,10.13-3.56A15.58,15.58,0,0,1,193.46,5a12.62,12.62,0,0,1,4.24,9.83V43.27a12.59,12.59,0,0,1-4.24,9.79,15.48,15.48,0,0,1-10.2,3.56A15.24,15.24,0,0,1,173.09,53Zm13.69-7a4.56,4.56,0,0,0,1.31-3.26V15.32A4.84,4.84,0,0,0,186.75,12a5,5,0,0,0-3.49-1.43A4.84,4.84,0,0,0,179.81,12a4.71,4.71,0,0,0-1.39,3.34V42.74A4.56,4.56,0,0,0,179.73,46a4.71,4.71,0,0,0,3.53,1.46A4.77,4.77,0,0,0,186.78,46Z"/><path d="M203.73,54.33V3.74a1.3,1.3,0,0,1,1.39-1.46h13.05a14.34,14.34,0,0,1,10.16,4.05,13.79,13.79,0,0,1,4.05,9.86v6.64a13.31,13.31,0,0,1-5.25,11.1l5.78,20.37c.19.71-.15,1.46-.86,1.46h-7.58c-.79,0-1.09-.23-1.24-1.24L219,37a3.22,3.22,0,0,1-.6,0h-5.06V54.33c0,.94-.45,1.43-1.35,1.43h-6.9A1.24,1.24,0,0,1,203.73,54.33Zm14.44-26.44c2.89,0,4.58-2,4.58-4.76v-7a4.38,4.38,0,0,0-4.61-4.73h-4.76V27.89Z"/><path d="M244.16,54.37V11.42h-7.8c-.64,0-1.12-.41-1.12-1.35V3.7c0-.94.49-1.43,1.13-1.43h25.17c.64,0,1.16.49,1.16,1.39v6.41c0,.94-.52,1.35-1.16,1.35h-7.76V54.37c0,.94-.41,1.39-1.12,1.39h-7.35C244.64,55.76,244.16,55.31,244.16,54.37Z"/><path d="M266.58,54.29V3.74A1.3,1.3,0,0,1,268,2.27h21.38c.71,0,1.13.45,1.13,1.39v6.41c0,.9-.41,1.35-1.12,1.35H276.22V24.1h10.2c.71,0,1.24.38,1.24,1.39v6.38c0,.94-.49,1.39-1.24,1.39h-10.2V46.6H289.5a1.15,1.15,0,0,1,1.16,1.31v6.49c0,.94-.52,1.35-1.16,1.35H268C267,55.76,266.58,55.27,266.58,54.29Z"/><path d="M293.43,54.52V49.46a3,3,0,0,1,.3-1.24l14.21-35.86.68-1.2H295c-.67,0-1-.41-1-1.28V3.55c0-.86.45-1.28,1-1.28h23.07c.79,0,1.16.41,1.16,1.28v5a.72.72,0,0,1,0,.3l-.15.6L304.42,45l-.86,1.35h15.26c.6,0,1,.38,1,1.24v7c0,.86-.41,1.24-1,1.24H294.44C293.84,55.76,293.43,55.38,293.43,54.52Z"/><path d="M324.4,54.29V3.74a1.3,1.3,0,0,1,1.39-1.46h6.86A1.29,1.29,0,0,1,334,3.74V54.29c0,1-.45,1.46-1.39,1.46h-6.86C324.85,55.76,324.4,55.27,324.4,54.29Z"/></svg>