<svg id="Camada_1" data-name="Camada 1" xmlns="http://www.w3.org/2000/svg" xmlns:xlink="http://www.w3.org/1999/xlink" viewBox="0 0 486 200"><defs><style>.cls-1{fill:none;}.cls-2{fill:#fff;}.cls-3{fill:url(#Gradiente_sem_nome_21);}.cls-4{fill:url(#Gradiente_sem_nome_21-2);}.cls-5{fill:url(#Gradiente_sem_nome_21-3);}.cls-6{fill:url(#Gradiente_sem_nome_100);}.cls-7{fill:url(#Gradiente_sem_nome_101);}.cls-8{fill:url(#Gradiente_sem_nome_101-2);}.cls-9{fill:url(#Gradiente_sem_nome_101-3);}.cls-10{fill:url(#Gradiente_sem_nome_118);}.cls-11{fill:url(#Gradiente_sem_nome_118-2);}.cls-12{fill:url(#Gradiente_sem_nome_118-3);}.cls-13{fill:url(#Gradiente_sem_nome_118-4);}.cls-14{fill:url(#Gradiente_sem_nome_118-5);}.cls-15{fill:url(#Gradiente_sem_nome_99);}.cls-16{fill:url(#Gradiente_sem_nome_99-2);}.cls-17{fill:url(#Gradiente_sem_nome_99-3);}.cls-18{fill:url(#Gradiente_sem_nome_99-4);}.cls-19{fill:url(#Gradiente_sem_nome_99-5);}.cls-20{fill:url(#Gradiente_sem_nome_99-6);}.cls-21{fill:url(#Gradiente_sem_nome_99-7);}.cls-22{fill:url(#Gradiente_sem_nome_99-8);}.cls-23{fill:url(#Gradiente_sem_nome_78);}.cls-24{fill:url(#Gradiente_sem_nome_78-2);}.cls-25{fill:url(#Gradiente_sem_nome_78-3);}.cls-26{fill:url(#Gradiente_sem_nome_103);}.cls-27{fill:url(#Gradiente_sem_nome_103-2);}.cls-28{fill:url(#Gradiente_sem_nome_103-3);}.cls-29{fill:url(#Gradiente_sem_nome_103-4);}.cls-30{fill:url(#Gradiente_sem_nome_103-5);}.cls-31{fill:url(#Gradiente_sem_nome_103-6);}.cls-32{fill:url(#Gradiente_sem_nome_103-7);}.cls-33{fill:url(#Gradiente_sem_nome_107);}.cls-34{fill:url(#Gradiente_sem_nome_108);}.cls-35{fill:url(#Gradiente_sem_nome_108-2);}.cls-36{fill:url(#Gradiente_sem_nome_125);}.cls-37{fill:url(#Gradiente_sem_nome_125-2);}.cls-38{fill:url(#Gradiente_sem_nome_125-3);}.cls-39{fill:url(#Gradiente_sem_nome_125-4);}.cls-40{fill:url(#Gradiente_sem_nome_125-5);}.cls-41{fill:url(#Gradiente_sem_nome_125-6);}.cls-42{fill:url(#Gradiente_sem_nome_112);}.cls-43{fill:url(#Gradiente_sem_nome_112-2);}.cls-44{fill:url(#Gradiente_sem_nome_112-3);}.cls-45{fill:url(#Gradiente_sem_nome_112-4);}.cls-46{fill:url(#Gradiente_sem_nome_112-5);}.cls-47{fill:url(#Gradiente_sem_nome_125-7);}.cls-48{fill:url(#Gradiente_sem_nome_112-6);}.cls-49{fill:url(#Gradiente_sem_nome_113);}.cls-50{fill:url(#Gradiente_sem_nome_113-2);}.cls-51{fill:url(#Gradiente_sem_nome_113-3);}.cls-52{fill:url(#Gradiente_sem_nome_113-4);}.cls-53{fill:url(#Gradiente_sem_nome_113-5);}.cls-54{fill:url(#Gradiente_sem_nome_113-6);}.cls-55{fill:url(#Gradiente_sem_nome_115);}.cls-56{fill:url(#Gradiente_sem_nome_115-2);}.cls-57{fill:url(#Gradiente_sem_nome_116);}.cls-58{fill:url(#Gradiente_sem_nome_116-2);}.cls-59{fill:url(#Gradiente_sem_nome_116-3);}.cls-60{fill:url(#Gradiente_sem_nome_116-4);}.cls-61{fill:url(#Gradiente_sem_nome_116-5);}.cls-62{fill:url(#Gradiente_sem_nome_121);}.cls-63{fill:url(#Gradiente_sem_nome_121-2);}.cls-64{fill:url(#Gradiente_sem_nome_121-3);}.cls-65{fill:url(#Gradiente_sem_nome_121-4);}.cls-66{fill:url(#Gradiente_sem_nome_99-9);}.cls-67{fill:url(#Gradiente_sem_nome_99-10);}.cls-68{fill:url(#Gradiente_sem_nome_99-11);}.cls-69{fill:url(#Gradiente_sem_nome_99-12);}.cls-70{fill:url(#Gradiente_sem_nome_99-13);}.cls-71{fill:url(#Gradiente_sem_nome_99-14);}.cls-72{fill:url(#Gradiente_sem_nome_99-15);}.cls-73{fill:url(#Gradiente_sem_nome_99-16);}.cls-74{fill:url(#Gradiente_sem_nome_99-17);}.cls-75{fill:url(#Gradiente_sem_nome_99-18);}.cls-76{fill:url(#Gradiente_sem_nome_122);}.cls-77{fill:url(#Gradiente_sem_nome_122-2);}.cls-78{fill:url(#Gradiente_sem_nome_122-3);}.cls-79{fill:url(#Gradiente_sem_nome_127);}.cls-80{fill:url(#Gradiente_sem_nome_127-2);}.cls-81{fill:url(#Gradiente_sem_nome_133);}.cls-82{fill:url(#Gradiente_sem_nome_135);}.cls-83{fill:url(#Gradiente_sem_nome_135-2);}.cls-84{fill:url(#Gradiente_sem_nome_135-3);}.cls-85{fill:url(#Gradiente_sem_nome_135-4);}.cls-86{fill:url(#Gradiente_sem_nome_135-5);}.cls-87{fill:url(#Gradiente_sem_nome_136);}.cls-88{fill:url(#Gradiente_sem_nome_136-2);}.cls-89{fill:url(#Gradiente_sem_nome_136-3);}.cls-90{fill:url(#Gradiente_sem_nome_136-4);}.cls-91{fill:url(#Gradiente_sem_nome_136-5);}.cls-92{fill:url(#Gradiente_sem_nome_136-6);}.cls-93{fill:url(#Gradiente_sem_nome_136-7);}.cls-94{fill:url(#Gradiente_sem_nome_136-8);}</style><linearGradient id="Gradiente_sem_nome_21" x1="58.39" y1="30.02" x2="94.28" y2="50.74" gradientUnits="userSpaceOnUse"><stop offset="0" stop-color="#fff" stop-opacity="0"/><stop offset="1" stop-opacity="0.8"/></linearGradient><linearGradient id="Gradiente_sem_nome_21-2" x1="59.77" y1="27.64" x2="95.66" y2="48.36" xlink:href="#Gradiente_sem_nome_21"/><linearGradient id="Gradiente_sem_nome_21-3" x1="59.29" y1="28.47" x2="95.18" y2="49.19" xlink:href="#Gradiente_sem_nome_21"/><linearGradient id="Gradiente_sem_nome_100" x1="38.6" y1="67.87" x2="92.42" y2="30.18" gradientUnits="userSpaceOnUse"><stop offset="0" stop-color="#fff" stop-opacity="0"/><stop offset="1" stop-opacity="0.7"/></linearGradient><linearGradient id="Gradiente_sem_nome_101" x1="84.09" y1="141.14" x2="116.85" y2="141.14" gradientUnits="userSpaceOnUse"><stop offset="0" stop-color="#fff" stop-opacity="0"/><stop offset="0.91" stop-color="#353535" stop-opacity="0.56"/><stop offset="1" stop-opacity="0.7"/></linearGradient><linearGradient id="Gradiente_sem_nome_101-2" x1="84.09" y1="140.63" x2="116.85" y2="140.63" xlink:href="#Gradiente_sem_nome_101"/><linearGradient id="Gradiente_sem_nome_101-3" x1="84.09" y1="140.89" x2="116.85" y2="140.89" xlink:href="#Gradiente_sem_nome_101"/><linearGradient id="Gradiente_sem_nome_118" x1="152.32" y1="101.12" x2="137.12" y2="101.12" xlink:href="#Gradiente_sem_nome_100"/><linearGradient id="Gradiente_sem_nome_118-2" x1="152.32" y1="104.88" x2="137.12" y2="104.88" xlink:href="#Gradiente_sem_nome_100"/><linearGradient id="Gradiente_sem_nome_118-3" x1="152.32" y1="114.04" x2="137.13" y2="114.04" xlink:href="#Gradiente_sem_nome_100"/><linearGradient id="Gradiente_sem_nome_118-4" x1="152.32" y1="94.25" x2="137.13" y2="94.25" xlink:href="#Gradiente_sem_nome_100"/><linearGradient id="Gradiente_sem_nome_118-5" x1="152.32" y1="105.2" x2="137.13" y2="105.2" xlink:href="#Gradiente_sem_nome_100"/><linearGradient id="Gradiente_sem_nome_99" x1="180.59" y1="54.13" x2="180.59" y2="35.9" gradientUnits="userSpaceOnUse"><stop offset="0" stop-color="#fff" stop-opacity="0"/><stop offset="1" stop-opacity="0.7"/></linearGradient><linearGradient id="Gradiente_sem_nome_99-2" x1="180.86" y1="54.13" x2="180.86" y2="35.9" xlink:href="#Gradiente_sem_nome_99"/><linearGradient id="Gradiente_sem_nome_99-3" x1="180.85" y1="54.13" x2="180.85" y2="35.9" xlink:href="#Gradiente_sem_nome_99"/><linearGradient id="Gradiente_sem_nome_99-4" x1="181.11" y1="54.13" x2="181.11" y2="35.9" xlink:href="#Gradiente_sem_nome_99"/><linearGradient id="Gradiente_sem_nome_99-5" x1="186.93" y1="54.13" x2="186.93" y2="35.9" xlink:href="#Gradiente_sem_nome_99"/><linearGradient id="Gradiente_sem_nome_99-6" x1="178.13" y1="54.13" x2="178.13" y2="35.9" xlink:href="#Gradiente_sem_nome_99"/><linearGradient id="Gradiente_sem_nome_99-7" x1="189.79" y1="54.13" x2="189.79" y2="35.9" xlink:href="#Gradiente_sem_nome_99"/><linearGradient id="Gradiente_sem_nome_99-8" x1="183.34" y1="54.13" x2="183.34" y2="35.91" xlink:href="#Gradiente_sem_nome_99"/><linearGradient id="Gradiente_sem_nome_78" x1="153.67" y1="140.92" x2="160.87" y2="142.19" gradientUnits="userSpaceOnUse"><stop offset="0" stop-color="#fff" stop-opacity="0"/><stop offset="0.9" stop-color="#393939" stop-opacity="0.39"/><stop offset="1" stop-opacity="0.5"/></linearGradient><linearGradient id="Gradiente_sem_nome_78-2" x1="153.32" y1="142.9" x2="160.52" y2="144.17" xlink:href="#Gradiente_sem_nome_78"/><linearGradient id="Gradiente_sem_nome_78-3" x1="153.69" y1="140.77" x2="160.9" y2="142.04" xlink:href="#Gradiente_sem_nome_78"/><linearGradient id="Gradiente_sem_nome_103" x1="187.91" y1="110.01" x2="219.44" y2="103.31" xlink:href="#Gradiente_sem_nome_99"/><linearGradient id="Gradiente_sem_nome_103-2" x1="189.66" y1="118.26" x2="221.19" y2="111.56" xlink:href="#Gradiente_sem_nome_99"/><linearGradient id="Gradiente_sem_nome_103-3" x1="188" y1="110.42" x2="219.52" y2="103.72" xlink:href="#Gradiente_sem_nome_99"/><linearGradient id="Gradiente_sem_nome_103-4" x1="187.84" y1="109.71" x2="219.37" y2="103.01" xlink:href="#Gradiente_sem_nome_99"/><linearGradient id="Gradiente_sem_nome_103-5" x1="188.25" y1="111.6" x2="219.77" y2="104.9" xlink:href="#Gradiente_sem_nome_99"/><linearGradient id="Gradiente_sem_nome_103-6" x1="188.11" y1="110.96" x2="219.64" y2="104.26" xlink:href="#Gradiente_sem_nome_99"/><linearGradient id="Gradiente_sem_nome_103-7" x1="188.64" y1="113.43" x2="220.16" y2="106.73" xlink:href="#Gradiente_sem_nome_99"/><linearGradient id="Gradiente_sem_nome_107" x1="199.2" y1="124.49" x2="211.89" y2="124.49" xlink:href="#Gradiente_sem_nome_100"/><linearGradient id="Gradiente_sem_nome_108" x1="248.91" y1="106.06" x2="262.27" y2="98.35" xlink:href="#Gradiente_sem_nome_99"/><linearGradient id="Gradiente_sem_nome_108-2" x1="248.4" y1="105.17" x2="261.76" y2="97.46" xlink:href="#Gradiente_sem_nome_99"/><linearGradient id="Gradiente_sem_nome_125" x1="271.12" y1="82.2" x2="265.24" y2="83.23" xlink:href="#Gradiente_sem_nome_99"/><linearGradient id="Gradiente_sem_nome_125-2" x1="271.68" y1="85.35" x2="265.8" y2="86.39" xlink:href="#Gradiente_sem_nome_99"/><linearGradient id="Gradiente_sem_nome_125-3" x1="271.35" y1="83.5" x2="265.47" y2="84.53" xlink:href="#Gradiente_sem_nome_99"/><linearGradient id="Gradiente_sem_nome_125-4" x1="271.1" y1="82.1" x2="265.22" y2="83.13" xlink:href="#Gradiente_sem_nome_99"/><linearGradient id="Gradiente_sem_nome_125-5" x1="270.74" y1="80.03" x2="264.86" y2="81.06" xlink:href="#Gradiente_sem_nome_99"/><linearGradient id="Gradiente_sem_nome_125-6" x1="270.27" y1="77.38" x2="264.39" y2="78.42" xlink:href="#Gradiente_sem_nome_99"/><linearGradient id="Gradiente_sem_nome_112" x1="274.66" y1="79.62" x2="273.47" y2="72.86" xlink:href="#Gradiente_sem_nome_100"/><linearGradient id="Gradiente_sem_nome_112-2" x1="275.73" y1="79.44" x2="274.53" y2="72.67" xlink:href="#Gradiente_sem_nome_100"/><linearGradient id="Gradiente_sem_nome_112-3" x1="272.46" y1="80.01" x2="271.27" y2="73.25" xlink:href="#Gradiente_sem_nome_100"/><linearGradient id="Gradiente_sem_nome_112-4" x1="268.39" y1="80.73" x2="267.2" y2="73.96" xlink:href="#Gradiente_sem_nome_100"/><linearGradient id="Gradiente_sem_nome_112-5" x1="270.42" y1="80.37" x2="269.23" y2="73.61" xlink:href="#Gradiente_sem_nome_100"/><linearGradient id="Gradiente_sem_nome_125-7" x1="270.53" y1="78.84" x2="264.65" y2="79.87" xlink:href="#Gradiente_sem_nome_99"/><linearGradient id="Gradiente_sem_nome_112-6" x1="269.32" y1="80.57" x2="268.13" y2="73.8" xlink:href="#Gradiente_sem_nome_100"/><linearGradient id="Gradiente_sem_nome_113" x1="291.81" y1="135" x2="297.28" y2="135" xlink:href="#Gradiente_sem_nome_99"/><linearGradient id="Gradiente_sem_nome_113-2" x1="291.81" y1="143.08" x2="297.28" y2="143.08" xlink:href="#Gradiente_sem_nome_99"/><linearGradient id="Gradiente_sem_nome_113-3" x1="291.81" y1="141.04" x2="297.28" y2="141.04" xlink:href="#Gradiente_sem_nome_99"/><linearGradient id="Gradiente_sem_nome_113-4" x1="291.81" y1="141.8" x2="297.28" y2="141.8" xlink:href="#Gradiente_sem_nome_99"/><linearGradient id="Gradiente_sem_nome_113-5" x1="291.81" y1="143.85" x2="297.28" y2="143.85" xlink:href="#Gradiente_sem_nome_99"/><linearGradient id="Gradiente_sem_nome_113-6" x1="291.81" y1="138.64" x2="297.28" y2="138.64" xlink:href="#Gradiente_sem_nome_99"/><linearGradient id="Gradiente_sem_nome_115" x1="315.46" y1="129.34" x2="327.99" y2="107.63" xlink:href="#Gradiente_sem_nome_100"/><linearGradient id="Gradiente_sem_nome_115-2" x1="314.26" y1="128.64" x2="326.79" y2="106.94" xlink:href="#Gradiente_sem_nome_100"/><linearGradient id="Gradiente_sem_nome_116" x1="328.35" y1="138.99" x2="338.12" y2="141.61" xlink:href="#Gradiente_sem_nome_100"/><linearGradient id="Gradiente_sem_nome_116-2" x1="325.74" y1="148.76" x2="335.5" y2="151.37" xlink:href="#Gradiente_sem_nome_100"/><linearGradient id="Gradiente_sem_nome_116-3" x1="327.11" y1="143.63" x2="336.88" y2="146.25" xlink:href="#Gradiente_sem_nome_100"/><linearGradient id="Gradiente_sem_nome_116-4" x1="329.29" y1="135.49" x2="339.06" y2="138.11" xlink:href="#Gradiente_sem_nome_100"/><linearGradient id="Gradiente_sem_nome_116-5" x1="327.92" y1="140.62" x2="337.68" y2="143.24" xlink:href="#Gradiente_sem_nome_100"/><linearGradient id="Gradiente_sem_nome_121" x1="387.05" y1="116.43" x2="363.07" y2="112.2" xlink:href="#Gradiente_sem_nome_100"/><linearGradient id="Gradiente_sem_nome_121-2" x1="389.88" y1="100.36" x2="365.9" y2="96.13" xlink:href="#Gradiente_sem_nome_100"/><linearGradient id="Gradiente_sem_nome_121-3" x1="392.14" y1="87.57" x2="368.16" y2="83.35" xlink:href="#Gradiente_sem_nome_100"/><linearGradient id="Gradiente_sem_nome_121-4" x1="390.37" y1="97.61" x2="366.39" y2="93.38" xlink:href="#Gradiente_sem_nome_100"/><linearGradient id="Gradiente_sem_nome_99-9" x1="387.86" y1="65.79" x2="410.74" y2="42.9" xlink:href="#Gradiente_sem_nome_99"/><linearGradient id="Gradiente_sem_nome_99-10" x1="393.53" y1="71.46" x2="416.41" y2="48.57" xlink:href="#Gradiente_sem_nome_99"/><linearGradient id="Gradiente_sem_nome_99-11" x1="388.22" y1="66.15" x2="411.1" y2="43.27" xlink:href="#Gradiente_sem_nome_99"/><linearGradient id="Gradiente_sem_nome_99-12" x1="382.14" y1="60.07" x2="405.02" y2="37.18" xlink:href="#Gradiente_sem_nome_99"/><linearGradient id="Gradiente_sem_nome_99-13" x1="382.07" y1="60" x2="404.95" y2="37.12" xlink:href="#Gradiente_sem_nome_99"/><linearGradient id="Gradiente_sem_nome_99-14" x1="382.58" y1="60.52" x2="405.47" y2="37.63" xlink:href="#Gradiente_sem_nome_99"/><linearGradient id="Gradiente_sem_nome_99-15" x1="382.37" y1="60.31" x2="405.26" y2="37.42" xlink:href="#Gradiente_sem_nome_99"/><linearGradient id="Gradiente_sem_nome_99-16" x1="382.21" y1="60.14" x2="405.09" y2="37.26" xlink:href="#Gradiente_sem_nome_99"/><linearGradient id="Gradiente_sem_nome_99-17" x1="391.04" y1="68.97" x2="413.92" y2="46.09" xlink:href="#Gradiente_sem_nome_99"/><linearGradient id="Gradiente_sem_nome_99-18" x1="388.34" y1="66.26" x2="411.22" y2="43.38" xlink:href="#Gradiente_sem_nome_99"/><linearGradient id="Gradiente_sem_nome_122" x1="358.27" y1="166.39" x2="358.27" y2="192.89" xlink:href="#Gradiente_sem_nome_99"/><linearGradient id="Gradiente_sem_nome_122-2" x1="356.34" y1="166.39" x2="356.34" y2="192.89" xlink:href="#Gradiente_sem_nome_99"/><linearGradient id="Gradiente_sem_nome_122-3" x1="351.79" y1="166.38" x2="351.79" y2="192.89" xlink:href="#Gradiente_sem_nome_99"/><linearGradient id="Gradiente_sem_nome_127" x1="371.93" y1="121.56" x2="386.91" y2="130.21" xlink:href="#Gradiente_sem_nome_100"/><linearGradient id="Gradiente_sem_nome_127-2" x1="375.93" y1="114.64" x2="390.9" y2="123.29" xlink:href="#Gradiente_sem_nome_100"/><linearGradient id="Gradiente_sem_nome_133" x1="337.36" y1="116.17" x2="344.39" y2="118.73" gradientUnits="userSpaceOnUse"><stop offset="0" stop-color="#fff" stop-opacity="0"/><stop offset="1" stop-opacity="0.6"/></linearGradient><linearGradient id="Gradiente_sem_nome_135" x1="415.64" y1="135.61" x2="429.25" y2="135.61" xlink:href="#Gradiente_sem_nome_100"/><linearGradient id="Gradiente_sem_nome_135-2" x1="415.64" y1="141" x2="429.25" y2="141" xlink:href="#Gradiente_sem_nome_100"/><linearGradient id="Gradiente_sem_nome_135-3" x1="415.64" y1="141.84" x2="429.25" y2="141.84" xlink:href="#Gradiente_sem_nome_100"/><linearGradient id="Gradiente_sem_nome_135-4" x1="415.64" y1="147.21" x2="429.25" y2="147.21" xlink:href="#Gradiente_sem_nome_100"/><linearGradient id="Gradiente_sem_nome_135-5" x1="415.64" y1="141.83" x2="429.25" y2="141.83" xlink:href="#Gradiente_sem_nome_100"/><linearGradient id="Gradiente_sem_nome_136" x1="465.77" y1="130.67" x2="465.77" y2="106.12" xlink:href="#Gradiente_sem_nome_100"/><linearGradient id="Gradiente_sem_nome_136-2" x1="464.77" y1="130.67" x2="464.77" y2="106.12" xlink:href="#Gradiente_sem_nome_100"/><linearGradient id="Gradiente_sem_nome_136-3" x1="463.88" y1="130.67" x2="463.88" y2="106.12" xlink:href="#Gradiente_sem_nome_100"/><linearGradient id="Gradiente_sem_nome_136-4" x1="462.79" y1="130.67" x2="462.79" y2="106.12" xlink:href="#Gradiente_sem_nome_100"/><linearGradient id="Gradiente_sem_nome_136-5" x1="460.73" y1="130.67" x2="460.73" y2="106.12" xlink:href="#Gradiente_sem_nome_100"/><linearGradient id="Gradiente_sem_nome_136-6" x1="459.56" y1="130.67" x2="459.56" y2="106.12" xlink:href="#Gradiente_sem_nome_100"/><linearGradient id="Gradiente_sem_nome_136-7" x1="445.94" y1="130.67" x2="445.94" y2="106.12" xlink:href="#Gradiente_sem_nome_100"/><linearGradient id="Gradiente_sem_nome_136-8" x1="454.12" y1="130.67" x2="454.12" y2="106.14" xlink:href="#Gradiente_sem_nome_100"/></defs><title>Prancheta 1</title><path class="cls-1" d="M383.67,78.17l.13-.08a125.86,125.86,0,0,0,7.58-12.25s0-.05,0-.08a62.71,62.71,0,0,0,4.71-10.25s.41-1,.9-2.41a27.94,27.94,0,0,0,1.67-7.42,2.85,2.85,0,0,0-.14-1l0-.08a.57.57,0,0,0-.13-.17l-.08-.05a.44.44,0,0,0-.2-.06h0l-.15,0h0l-.17.05-.08,0c-1.91.9-6.59,7.59-14.84,24.64-3.56,7.33-7.52,15.64-11.09,24,.26-.28.52-.58.78-.86A130.22,130.22,0,0,0,383.67,78.17Z"/><path class="cls-1" d="M347.67,180.54A94.46,94.46,0,0,0,350,170.21h0c1.25-8,2-17.49,2.56-25.73a206.33,206.33,0,0,0-6.34,23.17c-3,14.42-2.92,19.83-1.72,19.59C346,186.63,347.67,180.54,347.67,180.54Z"/><path class="cls-1" d="M144.09,102.76c1.85-2.24,4-5.12,6.25-8.37a2.87,2.87,0,0,1,.19-.27c7.16-10.28,15.67-24.14,21.22-33.4,1.85-3.12,3.48-6.08,4.86-8.75h0s1.76-3.37,3.07-6.45c.35-.84.66-1.62.9-2.3l.05-.15.12-.37c.05-.16.1-.33.14-.47l.09-.28c.33-1.17.4-2,.17-2.26l-.07-.06a.34.34,0,0,0-.17-.07h-.08c-1.41.06-5.37,4.43-12.84,15.83C153.14,77.55,140,106.8,140,107,140,107,141.78,105.38,144.09,102.76Z"/><path class="cls-2" d="M160.26,144.11l.06-.07a30.91,30.91,0,0,1,.52-3.86A27.26,27.26,0,0,0,160.26,144.11Z"/><path class="cls-2" d="M180.73,42.69l-.12.37Z"/><path class="cls-2" d="M181,41.94c.18-.57.52-1.83.17-2.26C181.37,40,181.3,40.77,181,41.94Z"/><path class="cls-2" d="M162.08,135.33s-.25.83-.57,2q.28-1,.63-2.11c-1.24,1.23-2.64,2.57-4.13,3.94C159.44,137.91,160.93,136.52,162.08,135.33Z"/><path class="cls-2" d="M187,51.08a50.26,50.26,0,0,0,2.8-7.54l-2,5.56C187.47,49.87,187.21,50.53,187,51.08Z"/><path class="cls-2" d="M184,54l-7.4-2c-1.37,2.67-3,5.63-4.86,8.75-5.56,9.26-14.07,23.12-21.22,33.4,1.75-2.2,1.8,6.75,1.8,6.85,13.1-15,27.88-35,34.58-49.77C185.12,55,184,54,184,54Z"/><path class="cls-2" d="M150.31,94.43l0,0c-2.27,3.25-4.4,6.13-6.25,8.37A59.57,59.57,0,0,0,150.31,94.43Z"/><path class="cls-2" d="M180.56,43.22c-.24.68-.55,1.46-.9,2.3C180,44.71,180.32,43.92,180.56,43.22Z"/><path class="cls-2" d="M152,101.28c-1.13,1.26-5.51,6.13-9.45,10.17C145.52,108.51,148.73,105.06,152,101.28Z"/><path class="cls-2" d="M180.9,39.55a.34.34,0,0,1,.17.07A.38.38,0,0,0,180.9,39.55Z"/><path class="cls-2" d="M153.24,143.37l0,0c-5.5,4.55-11.43,8.47-15.59,8.47-3.56,0-4.75-3.76-4.75-9.11,0-10.1,1.41-21.3,4.18-26.06L140,107c0-.2,13.14-29.45,28-51.63,7.47-11.4,11.42-15.77,12.84-15.83a.84.84,0,0,0-.26,0s11.36-10.33,9.27,3.65a20.07,20.07,0,0,0,.73-4.88c0-7.33-3.76-11.29-9.31-11.29-20.59,0-42,41.38-50.69,60-7.58,16.9-11.93,30.89-13.7,42.08a25.26,25.26,0,0,1,3.6-1.89A4,4,0,0,1,123,130c.38,2.23-2.31,6-7.12,10.37.08,14.86,6.19,22.3,15,22.3,10.37,0,21.12-9.48,29.27-18.54l-3.81,4Z"/><polygon class="cls-2" points="236.1 134.17 235.9 134.37 235.89 134.38 236.1 134.18 236.1 134.17"/><path class="cls-2" d="M216.76,103.58c-.83.26-1.64.52-2.43.8C215.13,104.1,215.94,103.84,216.76,103.58Z"/><path class="cls-2" d="M206.48,107.73a67.24,67.24,0,0,0-13.26,8.74A69.65,69.65,0,0,1,206.48,107.73Z"/><path class="cls-2" d="M211.5,105.46c-.8.32-1.57.65-2.32,1Q210.32,105.93,211.5,105.46Z"/><path class="cls-2" d="M214.16,104.45c-.79.28-1.55.57-2.3.87Q213,104.86,214.16,104.45Z"/><path class="cls-2" d="M208.89,106.58q-1.24.56-2.4,1.15Q207.68,107.13,208.89,106.58Z"/><path class="cls-2" d="M232.73,141.7c-2,1-3.37.59-3.56-1,1.68-1.37,3.58-3.09,5.1-4.63-3.82,3.78-10.49,9.18-14.4,9.18-2,0-3-1.39-3-3.76,0-5.35,5-15.44,8.32-20.79,1.78-2.77-4.95-9.11-9.7-9.11a4.91,4.91,0,0,0-4,1.78c-11.48,13.46-15.84,17-23.56,23.76-17,15-15.64,3.56-4.75-10.69a81.22,81.22,0,0,1,6.9-7.26l0,0c-1.57.83,5.91-7.22,5.91-7.22,5.88-5.12,14-8.12,18-10,4-1.42,5.33.83,5.33.83-.71.19-1.41.39-2.1.6.87-.26,1.74-.51,2.63-.74,2.77-1-2.18-10.89-9.7-10.89-21.5,0-41.88,24.44-48,43.45q-.35,1.07-.63,2.11c-.21.81-.45,1.78-.66,2.8a30.91,30.91,0,0,0-.52,3.86c0,.55-.06,1.1-.06,1.62,0,8.71,4.55,12.08,9.5,12.08,11.48,0,26.33-15,35.44-23.36,0,0-9.47,2.13-4.64-4,1.64-2.09,9.68-12.77,10.87-15.46s-.25,4.06-1.06,5.69-5.17,13.81-5.17,13.81c-3.76,12.67,1.19,20.2,8.91,20.2,9.11,0,18.81-9.7,24.75-17.23l1.57-2A34.81,34.81,0,0,1,232.73,141.7Z"/><path class="cls-2" d="M268.38,82.71c-.24.3-.46.59-.64.83C267.94,83.27,268.15,83,268.38,82.71Z"/><path class="cls-2" d="M250.94,109.56c-4.14,9.23-8.77,17.64-14.84,24.61h0l-.21.21-.39.39c-.36.41-.79.85-1.24,1.31-1.51,1.53-3.42,3.25-5.1,4.63.2,1.58,1.58,2,3.56,1a34.81,34.81,0,0,0,7.71-6.32h0l.79-1c8.91-10.89,14.26-22.77,20.79-36.43l-3.41,7.12Z"/><path class="cls-2" d="M270.72,79.92h0l-.22.26-.18.21c-.46.54-1.23,1.44-1.87,2.24,1.44-1.81,3.3-3.82,4.78-5.6-.38.45-.67.77-.67.77Z"/><path class="cls-2" d="M295.89,141l.06-.07c0-.21,0-.42,0-.64Z"/><path class="cls-2" d="M297.32,133.16l0,0c-.08.29-.18.74-.29,1.29Q297.14,133.83,297.32,133.16Z"/><path class="cls-2" d="M266.86,84.88a4.53,4.53,0,0,0-.53,1.08A6.11,6.11,0,0,1,266.86,84.88Z"/><path class="cls-2" d="M293.85,143.09l-.52.51Z"/><path class="cls-2" d="M274.85,74.9l0,.05Z"/><path class="cls-2" d="M256.08,97.24c.64-1.58,1.11-2.76,1.2-3.06Z"/><path class="cls-2" d="M295.84,141.07l-.06.07Z"/><path class="cls-2" d="M293.88,143.06l.6-.59Z"/><path class="cls-2" d="M292.06,138.19c.25-.2.83-.73,1.5-1.37-6.54,6.09-12.63,9.83-19.65,9.83-3.56,0-5.74-1.78-5.74-5.54,0-9.5,17.23-24.16,17.23-35.44,0-10.1-19.21-14.45-19.21-19a5.51,5.51,0,0,1,0-5.57L267.55,79a.23.23,0,0,1,0-.12,14.22,14.22,0,0,1,.83-1.19l0,0h0a10.94,10.94,0,0,1,1-1.12c.94-.91,1.57-1.53,3.33-3.05,2.63-2.27,2.21,1.17,2.2,1.2A3.74,3.74,0,0,0,275.7,73c0-1.78-4-5.54-8.71-5.54-4,0-8.12,3.56-10.69,8.32-3.37,5.94-4.16,13.86.59,18l.4.4L262,97.94c3.37,2.57,5.54,4.16,5.54,6.73,0,6.93-15.84,21.78-15.84,36.63,0,8.91,6.73,15,16,15s18.39-6.05,25-12.25C292.78,144.05,291.22,138.84,292.06,138.19Z"/><path class="cls-2" d="M333.46,140.18l.48-.41Z"/><path class="cls-2" d="M332.91,147.32c-1.06,1-1.92,1.7-2.52,2.2C331.25,148.82,332.09,148.08,332.91,147.32Z"/><path class="cls-2" d="M339.39,134.44l-.52.58.52-.57Z"/><path class="cls-2" d="M327,93.19c5.74,0,9.9-2.77,9.9-6.53,0-5.74-11.09-13.07-15.25-9.7-3.56,3-5,12.08-2.77,14.06C320,92.2,323.41,93.19,327,93.19Z"/><path class="cls-2" d="M328.76,143.65a40.84,40.84,0,0,0,4.37-3.2c-5.21,4.26-11.55,7.78-17.24,7.78-3.76,0-5.35-2-5.35-5.35,0-4.36,2.57-10.69,6.34-17.42,1.89-3.26,4.1-6.59,6.13-9.62-.64.91-1.09,1.53-1.09,1.53L313,127.92s9-16.49,11.5-19.17c3.43-3.75,3.07-.08,3.07-.08l-.09.2a18.38,18.38,0,0,0,1.29-2.61c1.78-4.95-11.68-6.73-17-2-3.17,2.77-6.14,8.51-8.91,14.45a87.36,87.36,0,0,0-5.5,14.43q-.18.67-.34,1.32c-.35,1.78-.79,4.54-1,5.83,0,.22,0,.43,0,.64,0,.6-.06,1.19-.06,1.75,0,11.29,9.7,14.45,15.44,14.45,7.1,0,12.94-2.81,18.15-6.89C322.13,149.52,328.76,143.65,328.76,143.65Z"/><path class="cls-2" d="M397.91,44.3l.15,0Z"/><path class="cls-2" d="M428.24,134.5l.12-.13Z"/><path class="cls-2" d="M426.15,136.73a54.19,54.19,0,0,1-5.38,4.72l.06,0C422.07,140.81,424.4,138.53,426.15,136.73Z"/><path class="cls-2" d="M397.73,44.36l.17-.05Z"/><path class="cls-2" d="M429.24,133.48l-.89.89.89-.86Z"/><path class="cls-2" d="M407.86,52.17c-.08.27-.92,3-1.77,5.51C406.77,55.8,407.37,54,407.86,52.17Z"/><path class="cls-2" d="M357.38,181.72c-.4,1.26-.77,2.31-1,2.86Q356.93,183.19,357.38,181.72Z"/><path class="cls-2" d="M407.76,91c1.19,1.19,4.55,2.18,8.12,2.18,5.74,0,9.9-2.77,9.9-6.53,0-5.74-11.09-13.07-15.25-9.7C407,79.92,405.58,89,407.76,91Z"/><path class="cls-2" d="M371.36,107.28c-1.06,1-2.28,2.06-3.47,3.12C369.07,109.38,370.22,108.33,371.36,107.28Z"/><path class="cls-2" d="M409,47.21c-.26,1.25-.61,2.84-1.12,4.9C408.34,50.43,408.71,48.8,409,47.21Z"/><path class="cls-2" d="M373,122.2c-4.62,1.14-9.13,1.12-12.91-.89.79-2.18,1.78-4.36,2.57-6.53L371.73,93c3.56-8.32,7.52-16.63,11.09-24,8.25-17,12.93-23.73,14.84-24.64l-.11.05s8.41-11.3,12-1.5c.1-1.1.16-2.18.16-3.22,0-6.53-3.17-11.48-9.5-11.48-24,0-47.32,71.08-51.88,81.18-2.38,5.74-6.53,7.72-11.68,8.91-2.18.4-.59,6.53,1.78,7.52a12.18,12.18,0,0,0,3.76.4c-.91,2.56-1.87,5.31-2.83,8.19h0l.06-.07L336.32,144c-2.14,7-4.13,14.22-5.58,21.06a78.17,78.17,0,0,0-2,16.43c0,13.07,5.15,18.61,11.09,18.61,7.86,0,13.06-6.18,16.4-15.06-8.71,16.26-11.82,2.2-11.82,2.2l0,0c-1.21.25-1.28-5.17,1.72-19.59a206.33,206.33,0,0,1,6.34-23.17c-.56,8.24-1.31,17.69-2.56,25.73,6.31-10.23,9,3.2,9.18,4.48a144,144,0,0,0,2.48-27.84c0-6.34-.4-12.08-.79-16.43a21.6,21.6,0,0,0,10.68.17C364.71,128.71,372.36,122.66,373,122.2Zm-29-2.31c-3.06-1.71-7.91,0-7.91,0l2.44-1.44c5.92-1.41,7.31-3.46,7.31-3.46Z"/><path class="cls-2" d="M424,145.23c1.12-1.12,2.22-2.27,3.3-3.44-1.4,1.48-3.25,3.38-3.25,3.38Z"/><path class="cls-2" d="M419.71,142.23c-4.71,3.41-10,6-14.92,6-3.76,0-5.35-2-5.35-5.35,0-4.36,2.57-10.69,6.34-17.42,4.36-7.52,10.49-15.44,11.88-19.21,1.78-4.95-11.68-6.73-17-2a21.65,21.65,0,0,0-2,2.18c-4.37,4.78-15.24,13.14-25.6,15.72,7.83,1.44,19.39-7.68,25.08-12.61,3.75-3.25-7.8,12.34-7.8,12.34-4,8.91-5.54,15.64-5.54,20.79,0,11.29,9.7,14.45,15.44,14.45,7.7,0,13.91-3.3,19.44-7.95l-1.14.93C412.7,150.63,417,144.59,419.71,142.23Z"/><path class="cls-2" d="M391.38,65.83a125.86,125.86,0,0,1-7.58,12.25c1.32-.8,12.09-7,9.2,4.25,0,0-2.08,3.12-5.42,7.43a124,124,0,0,0,16.95-28.08C403.8,62.76,392.15,79.84,391.38,65.83Z"/><path class="cls-2" d="M429.18,133.9a32,32,0,0,0-.43,6.29l0,0,.05-.06c0-.28,0-.55,0-.84A36.08,36.08,0,0,1,429.18,133.9Z"/><path class="cls-2" d="M371.73,93l.78-.86C372.25,92.42,372,92.72,371.73,93Z"/><path class="cls-2" d="M398.35,44.4a.57.57,0,0,1,.13.17A.65.65,0,0,0,398.35,44.4Z"/><path class="cls-2" d="M397,53.09a29.27,29.27,0,0,0,1.64-6.67,4.29,4.29,0,0,0-.11-1.77,2.85,2.85,0,0,1,.14,1A27.94,27.94,0,0,1,397,53.09Z"/><path class="cls-2" d="M398.07,44.29a.44.44,0,0,1,.2.06A.44.44,0,0,0,398.07,44.29Z"/><path class="cls-2" d="M482.21,133.18,481,134.37c-9.5,9.9-20.39,15.25-27.92,15.25-5.94,0-9.9-3.37-9.9-10.49a28.49,28.49,0,0,1,1.57-8.68l-.07.22-3-4.41a49.26,49.26,0,0,1,3.88-7c4.08-6.42,13-11.83,13-11.83,6.67-3.42,7.93,1,7.93,1l-.08-.09c1.1,1.61-1.26,5.67-1.26,7.24,0,1,1.58,1.58,3.76,1.58,7.13,0,11.09-5.74,11.09-12.67,0-5.94-4-10.69-11.68-10.69-17.29,0-35.89,20-39.11,39.7v0h0l-.07.4a36.08,36.08,0,0,0-.43,5.42c0,.29,0,.56,0,.84.37,11.57,8.35,18.57,19.37,18.57,10.49,0,24-6.34,35.84-21.38l1.58-2C487.36,133.18,483,132.39,482.21,133.18Z"/><path class="cls-2" d="M464,107.69l.59,0A5.62,5.62,0,0,0,464,107.69Z"/><path class="cls-2" d="M452.67,115.83a39.47,39.47,0,0,0-5.56,8.9c3.12-6.39,7.69-12.28,12.2-15.18a14.74,14.74,0,0,0-1.94,1.42A34.73,34.73,0,0,0,452.67,115.83Z"/><path class="cls-2" d="M463.71,107.74h0Z"/><path class="cls-2" d="M459.91,109.19l-.11.06Z"/><path class="cls-2" d="M461.55,108.36l.4-.16-.29.11Z"/><path class="cls-2" d="M465.1,107.67l-.2,0Z"/><path class="cls-2" d="M94.89,44.9c2.14,5-4.13,17.32-12.84,26.5,3.76,6.73,7.72,9.5,11.48,9.5,21,.4,38.81-55.64.4-56.23a46.9,46.9,0,0,0-14.85,2.38C91.19,30.46,94.22,39.39,94.89,44.9Z"/><path class="cls-2" d="M84.09,147.66c-14.66,6.68-29.84,11.47-40.84,11.47-14.85,0-22.18-6.73-22.18-24.55,0-30.36,27.44-64.47,49.12-81.3C62,59,45,77,45,77s-4.58-23.85,7.78-35.31C24.45,63.93.28,103.72.28,135c0,21.58,10.49,39.8,36.43,39.8,27,0,62.51-19.65,78.25-33.52a90,90,0,0,1-15.72,11.09C95.93,154.1,84.09,147.66,84.09,147.66Z"/><path class="cls-2" d="M115.39,140.87l-.19.17Z"/><path class="cls-2" d="M123,130a4,4,0,0,0-2.57-2.77,25.26,25.26,0,0,0-3.6,1.89h0s-1.35,8.79-.94,11.25h0C120.73,136,123.42,132.25,123,130Z"/><path class="cls-3" d="M79.07,27.06S69,29.5,54.5,40.25a20.41,20.41,0,0,0-1.72,1.44C61.35,35,70.3,29.85,79.08,27.06Z"/><path class="cls-4" d="M95.07,47.34a11.27,11.27,0,0,1,0,1.36C95.07,48.35,95.08,47.89,95.07,47.34Z"/><path class="cls-5" d="M95.06,48.7c0,.26,0,.51-.06.8C95,49.5,95,49.21,95.06,48.7Z"/><path class="cls-2" d="M45,77S62,59,70.19,53.27h0c8.58-6.66,16.26-10.62,21-10.57a3.75,3.75,0,0,1,3.73,2.21c-.68-5.52-3.7-14.45-15.81-17.84C70.3,29.85,61.35,35,52.78,41.69,40.42,53.15,45,77,45,77Z"/><path class="cls-6" d="M45,77S62,59,70.19,53.27h0c8.58-6.66,16.26-10.62,21-10.57a3.75,3.75,0,0,1,3.73,2.21c-.68-5.52-3.7-14.45-15.81-17.84C70.3,29.85,61.35,35,52.78,41.69,40.42,53.15,45,77,45,77Z"/><path class="cls-7" d="M115.2,141l-.23.2Z"/><path class="cls-8" d="M115.91,140.39h0l-.52.48Z"/><path class="cls-2" d="M116.85,129.14c-2.35,1.41-5.15,3.3-7.87,5a203.94,203.94,0,0,1-24.9,13.48s11.85,6.45,15.16,4.68A90,90,0,0,0,115,141.24l.23-.2.19-.17.52-.48C115.5,137.93,116.85,129.14,116.85,129.14Z"/><path class="cls-9" d="M116.85,129.14c-2.35,1.41-5.15,3.3-7.87,5a203.94,203.94,0,0,1-24.9,13.48s11.85,6.45,15.16,4.68A90,90,0,0,0,115,141.24l.23-.2.19-.17.52-.48C115.5,137.93,116.85,129.14,116.85,129.14Z"/><path class="cls-10" d="M152.32,101h0l-.28.32Z"/><path class="cls-11" d="M144.09,102.76C141.78,105.38,140,107,140,107A27.42,27.42,0,0,0,144.09,102.76Z"/><path class="cls-12" d="M137.13,116.63a64,64,0,0,0,5.47-5.18C140.63,113.42,138.79,115.17,137.13,116.63Z"/><path class="cls-13" d="M150.53,94.12a2.87,2.87,0,0,0-.19.27Z"/><path class="cls-2" d="M150.53,94.12l-.19.27,0,0a59.57,59.57,0,0,1-6.22,8.33A27.42,27.42,0,0,1,140,107l-2.87,9.63c1.67-1.47,3.51-3.21,5.47-5.18,3.93-4,8.32-8.91,9.45-10.17l.28-.32C152.32,100.86,152.28,91.92,150.53,94.12Z"/><path class="cls-14" d="M150.53,94.12l-.19.27,0,0a59.57,59.57,0,0,1-6.22,8.33A27.42,27.42,0,0,1,140,107l-2.87,9.63c1.67-1.47,3.51-3.21,5.47-5.18,3.93-4,8.32-8.91,9.45-10.17l.28-.32C152.32,100.86,152.28,91.92,150.53,94.12Z"/><path class="cls-15" d="M180.61,43.06l-.05.15Z"/><path class="cls-16" d="M180.86,39.53h0Z"/><path class="cls-17" d="M180.73,42.69c.09-.26.17-.52.23-.75l-.09.28C180.84,42.37,180.78,42.53,180.73,42.69Z"/><path class="cls-18" d="M181.14,39.68l-.07-.06Z"/><path class="cls-19" d="M187,51.08l0,.11Z"/><path class="cls-20" d="M176.6,52c1.25-2.43,2.29-4.62,3.06-6.45-1.31,3.08-3.07,6.45-3.07,6.45Z"/><path class="cls-21" d="M189.81,43.39l0-.16-.08.32Z"/><path class="cls-2" d="M180.56,39.58a.84.84,0,0,1,.26,0h0l0,0a.38.38,0,0,1,.17.07l.07.06c.35.43,0,1.69-.17,2.26-.07.23-.15.49-.23.75l-.12.37-.05.15c-.24.7-.55,1.49-.9,2.3-.77,1.84-1.81,4-3.06,6.45l7.4,2s1.12,1,2.9-2.81l0-.11c.25-.56.52-1.21.8-2l2-5.56.08-.32C191.92,29.25,180.56,39.58,180.56,39.58Z"/><path class="cls-22" d="M180.56,39.58a.84.84,0,0,1,.26,0h0l0,0a.38.38,0,0,1,.17.07l.07.06c.35.43,0,1.69-.17,2.26-.07.23-.15.49-.23.75l-.12.37-.05.15c-.24.7-.55,1.49-.9,2.3-.77,1.84-1.81,4-3.06,6.45l7.4,2s1.12,1,2.9-2.81l0-.11c.25-.56.52-1.21.8-2l2-5.56.08-.32C191.92,29.25,180.56,39.58,180.56,39.58Z"/><path class="cls-23" d="M153.28,143.33c1.63-1.35,3.23-2.76,4.73-4.13C155.71,141.27,153.59,143.07,153.28,143.33Z"/><path class="cls-24" d="M160.26,144.11h0l0,0Z"/><path class="cls-2" d="M161.51,137.37c.32-1.21.57-2,.57-2-1.16,1.19-2.65,2.58-4.07,3.86s-3.09,2.78-4.73,4.13l0,0,3.18,4.79,3.81-4,0,0a27.26,27.26,0,0,1,.59-3.93C161.06,139.15,161.3,138.18,161.51,137.37Z"/><path class="cls-25" d="M161.51,137.37c.32-1.21.57-2,.57-2-1.16,1.19-2.65,2.58-4.07,3.86s-3.09,2.78-4.73,4.13l0,0,3.18,4.79,3.81-4,0,0a27.26,27.26,0,0,1,.59-3.93C161.06,139.15,161.3,138.18,161.51,137.37Z"/><path class="cls-26" d="M214.33,104.38l-.18.06Z"/><path class="cls-27" d="M193.22,116.47q-1.58,1.32-3.09,2.72C190.42,119,191.46,118,193.22,116.47Z"/><path class="cls-28" d="M211.85,105.32l-.35.14Z"/><path class="cls-29" d="M217.24,103.44l-.48.15Z"/><path class="cls-30" d="M206.49,107.72h0Z"/><path class="cls-31" d="M209.18,106.45l-.28.13Z"/><path class="cls-2" d="M214,102c-4,1.88-12.12,4.88-18,10,0,0-7.48,8.05-5.91,7.22l0,0q1.5-1.4,3.09-2.72a67.24,67.24,0,0,1,13.26-8.74h0q1.16-.58,2.4-1.15l.28-.13c.75-.34,1.53-.67,2.32-1l.35-.14c.75-.3,1.52-.59,2.3-.87l.18-.06c.79-.28,1.6-.54,2.43-.8l.48-.15c.69-.21,1.38-.41,2.1-.6C219.33,102.83,218,100.58,214,102Z"/><path class="cls-32" d="M214,102c-4,1.88-12.12,4.88-18,10,0,0-7.48,8.05-5.91,7.22l0,0q1.5-1.4,3.09-2.72a67.24,67.24,0,0,1,13.26-8.74h0q1.16-.58,2.4-1.15l.28-.13c.75-.34,1.53-.67,2.32-1l.35-.14c.75-.3,1.52-.59,2.3-.87l.18-.06c.79-.28,1.6-.54,2.43-.8l.48-.15c.69-.21,1.38-.41,2.1-.6C219.33,102.83,218,100.58,214,102Z"/><path class="cls-2" d="M211.44,114.88c-1.19,2.69-9.22,13.36-10.87,15.46-4.83,6.17,4.64,4,4.64,4s4.35-12.19,5.17-13.81S212.63,112.19,211.44,114.88Z"/><path class="cls-33" d="M211.44,114.88c-1.19,2.69-9.22,13.36-10.87,15.46-4.83,6.17,4.64,4,4.64,4s4.35-12.19,5.17-13.81S212.63,112.19,211.44,114.88Z"/><path class="cls-34" d="M250.94,109.56h0c1.78-4,3.47-8.09,5.14-12.32C254.24,101.76,250.94,109.56,250.94,109.56Z"/><path class="cls-2" d="M256.08,97.24c-1.67,4.23-3.36,8.35-5.14,12.32l7.68-4.5L262,97.94l-4.75-3.76C257.2,94.48,256.73,95.67,256.08,97.24Z"/><path class="cls-35" d="M256.08,97.24c-1.67,4.23-3.36,8.35-5.14,12.32l7.68-4.5L262,97.94l-4.75-3.76C257.2,94.48,256.73,95.67,256.08,97.24Z"/><path class="cls-36" d="M268.44,82.63l-.06.08Z"/><path class="cls-37" d="M266.33,86a2.25,2.25,0,0,0-.14.69A3.38,3.38,0,0,1,266.33,86Z"/><path class="cls-38" d="M267.55,83.83l.2-.28a15.21,15.21,0,0,0-.88,1.33C267.06,84.56,267.28,84.23,267.55,83.83Z"/><path class="cls-2" d="M270.31,80.39s-2.78-.72-2.76-1.36l-1.35,2.05a5.51,5.51,0,0,0,0,5.57,2.25,2.25,0,0,1,.14-.69,4.53,4.53,0,0,1,.53-1.08,15.21,15.21,0,0,1,.88-1.33c.17-.24.39-.53.64-.83l.06-.08c.64-.8,1.41-1.71,1.87-2.24Z"/><path class="cls-39" d="M270.31,80.39s-2.78-.72-2.76-1.36l-1.35,2.05a5.51,5.51,0,0,0,0,5.57,2.25,2.25,0,0,1,.14-.69,4.53,4.53,0,0,1,.53-1.08,15.21,15.21,0,0,1,.88-1.33c.17-.24.39-.53.64-.83l.06-.08c.64-.8,1.41-1.71,1.87-2.24Z"/><path class="cls-2" d="M270.72,79.92h0l-.22.26Z"/><path class="cls-40" d="M270.72,79.92h0l-.22.26Z"/><path class="cls-2" d="M268.44,77.69l0,0,0,0Z"/><path class="cls-41" d="M268.44,77.69l0,0,0,0Z"/><path class="cls-42" d="M274.82,75c-.42.62-1,1.33-1.6,2.07A20.24,20.24,0,0,0,274.82,75Z"/><path class="cls-43" d="M275,74.72h0l-.12.19Z"/><path class="cls-2" d="M272.77,73.52c-1.76,1.52-2.39,2.14-3.33,3.05a10.94,10.94,0,0,0-1,1.12l2.28,2.23,1.83-2.12s.29-.32.67-.77c.62-.74,1.17-1.45,1.6-2.07l0-.05.12-.19S275.4,71.24,272.77,73.52Z"/><path class="cls-44" d="M272.77,73.52c-1.76,1.52-2.39,2.14-3.33,3.05a10.94,10.94,0,0,0-1,1.12l2.28,2.23,1.83-2.12s.29-.32.67-.77c.62-.74,1.17-1.45,1.6-2.07l0-.05.12-.19S275.4,71.24,272.77,73.52Z"/><path class="cls-2" d="M267.58,78.92a.23.23,0,0,0,0,.12l.86-1.3A14.22,14.22,0,0,0,267.58,78.92Z"/><path class="cls-45" d="M267.58,78.92a.23.23,0,0,0,0,.12l.86-1.3A14.22,14.22,0,0,0,267.58,78.92Z"/><path class="cls-2" d="M270.5,80.18l-.18.21Z"/><path class="cls-46" d="M270.5,80.18l-.18.21Z"/><path class="cls-2" d="M270.31,80.39h0l.18-.21.22-.26-2.28-2.23,0,0-.86,1.3C267.53,79.67,270.31,80.39,270.31,80.39Z"/><path class="cls-47" d="M270.31,80.39h0l.18-.21.22-.26-2.28-2.23,0,0-.86,1.3C267.53,79.67,270.31,80.39,270.31,80.39Z"/><path class="cls-48" d="M270.31,80.39h0l.18-.21.22-.26-2.28-2.23,0,0-.86,1.3C267.53,79.67,270.31,80.39,270.31,80.39Z"/><path class="cls-49" d="M297.28,133.18s-2.14,2.13-3.71,3.63q1.25-1.17,2.53-2.44Z"/><path class="cls-50" d="M293.88,143.06l0,0Z"/><path class="cls-51" d="M295.89,141h0l-.05.06Z"/><path class="cls-52" d="M295.78,141.14c-.41.44-.85.89-1.29,1.33C294.91,142,295.37,141.58,295.78,141.14Z"/><path class="cls-53" d="M292.8,144.11l.53-.51-.53.5Z"/><path class="cls-2" d="M297,134.47c.11-.55.21-1,.29-1.29l-1.19,1.19q-1.28,1.28-2.53,2.44c-.68.64-1.25,1.18-1.5,1.37-.84.65.72,5.87.73,5.92l.53-.5.52-.51,0,0,.6-.59c.45-.45.88-.89,1.29-1.33l.06-.07.05-.06.11-.71C296.2,139,296.64,136.25,297,134.47Z"/><path class="cls-54" d="M297,134.47c.11-.55.21-1,.29-1.29l-1.19,1.19q-1.28,1.28-2.53,2.44c-.68.64-1.25,1.18-1.5,1.37-.84.65.72,5.87.73,5.92l.53-.5.52-.51,0,0,.6-.59c.45-.45.88-.89,1.29-1.33l.06-.07.05-.06.11-.71C296.2,139,296.64,136.25,297,134.47Z"/><path class="cls-55" d="M327.47,108.87c-1.11,1.94-2.71,4.35-4.46,7A67.27,67.27,0,0,0,327.47,108.87Z"/><path class="cls-2" d="M324.5,108.75C322,111.43,313,127.92,313,127.92l8.92-10.54s.45-.62,1.09-1.53c1.75-2.62,3.35-5,4.46-7l.09-.2S327.93,105,324.5,108.75Z"/><path class="cls-56" d="M324.5,108.75C322,111.43,313,127.92,313,127.92l8.92-10.54s.45-.62,1.09-1.53c1.75-2.62,3.35-5,4.46-7l.09-.2S327.93,105,324.5,108.75Z"/><path class="cls-57" d="M333.14,140.45l.32-.27Z"/><path class="cls-58" d="M329.5,150.25s.33-.26.89-.73l-.91.73Z"/><path class="cls-59" d="M332.91,147.32c1-.89,2.13-2,3.37-3.21l0-.1v0C335.21,145.12,334.08,146.24,332.91,147.32Z"/><path class="cls-60" d="M338.87,135a62.5,62.5,0,0,1-4.93,4.75A53.55,53.55,0,0,0,338.87,135Z"/><path class="cls-2" d="M339.45,134.37l-.06.07-.52.57a53.55,53.55,0,0,1-4.93,4.75l-.48.41-.32.27a40.84,40.84,0,0,1-4.37,3.2s-6.63,5.88.72,6.6l.91-.73c.6-.5,1.46-1.24,2.52-2.2s2.3-2.2,3.42-3.35v0Z"/><path class="cls-61" d="M339.45,134.37l-.06.07-.52.57a53.55,53.55,0,0,1-4.93,4.75l-.48.41-.32.27a40.84,40.84,0,0,1-4.37,3.2s-6.63,5.88.72,6.6l.91-.73c.6-.5,1.46-1.24,2.52-2.2s2.3-2.2,3.42-3.35v0Z"/><path class="cls-62" d="M367.89,110.4q-2.57,2.23-5.27,4.37A62.74,62.74,0,0,0,367.89,110.4Z"/><path class="cls-63" d="M371.36,107.28c1.84-1.67,3.22-3,3.22-3a129.87,129.87,0,0,0,13-14.57A151.62,151.62,0,0,1,371.36,107.28Z"/><path class="cls-64" d="M372.51,92.14A130.28,130.28,0,0,0,383.8,78.08l-.13.08A130.22,130.22,0,0,1,372.51,92.14Z"/><path class="cls-2" d="M383.8,78.08a130.28,130.28,0,0,1-11.29,14.05l-.78.86-9.11,21.78q2.7-2.14,5.27-4.37c1.19-1.06,2.41-2.15,3.47-3.12a151.62,151.62,0,0,0,16.22-17.52c3.34-4.31,5.42-7.43,5.42-7.43C395.9,71.07,385.13,77.28,383.8,78.08Z"/><path class="cls-65" d="M383.8,78.08a130.28,130.28,0,0,1-11.29,14.05l-.78.86-9.11,21.78q2.7-2.14,5.27-4.37c1.19-1.06,2.41-2.15,3.47-3.12a151.62,151.62,0,0,0,16.22-17.52c3.34-4.31,5.42-7.43,5.42-7.43C395.9,71.07,385.13,77.28,383.8,78.08Z"/><path class="cls-66" d="M391.38,65.75s0,.05,0,.08c.24-.45.51-.9.74-1.35A77.71,77.71,0,0,0,397,53.09c-.49,1.41-.9,2.41-.9,2.41A62.71,62.71,0,0,1,391.38,65.75Z"/><path class="cls-67" d="M404.56,61.63a32.55,32.55,0,0,0,1.53-3.95q-.72,2-1.56,4Z"/><path class="cls-68" d="M409.61,43l0-.07Q409.4,45,409,47.21A17.32,17.32,0,0,0,409.61,43Z"/><path class="cls-69" d="M397.9,44.3h0Z"/><path class="cls-70" d="M397.65,44.4l.08,0Z"/><path class="cls-71" d="M398.47,44.56l0,.08Z"/><path class="cls-72" d="M398.35,44.4l-.08-.05Z"/><path class="cls-73" d="M398.06,44.28h0Z"/><path class="cls-74" d="M407.88,52.13h0l0,.06Z"/><path class="cls-2" d="M397.54,44.45l.11-.05.08,0,.17-.05h0l.15,0h0a.44.44,0,0,1,.2.06l.08.05a.65.65,0,0,1,.13.17l0,.08a4.29,4.29,0,0,1,.11,1.77A29.27,29.27,0,0,1,397,53.09a77.71,77.71,0,0,1-4.87,11.39c-.23.45-.5.9-.74,1.35.77,14,12.42-3.07,13.15-4.15q.85-2,1.56-4c.86-2.52,1.69-5.24,1.77-5.51l0-.06c.51-2.06.87-3.66,1.12-4.9q.4-2.2.58-4.26C406,33.15,397.54,44.45,397.54,44.45Z"/><path class="cls-75" d="M397.54,44.45l.11-.05.08,0,.17-.05h0l.15,0h0a.44.44,0,0,1,.2.06l.08.05a.65.65,0,0,1,.13.17l0,.08a4.29,4.29,0,0,1,.11,1.77A29.27,29.27,0,0,1,397,53.09a77.71,77.71,0,0,1-4.87,11.39c-.23.45-.5.9-.74,1.35.77,14,12.42-3.07,13.15-4.15q.85-2,1.56-4c.86-2.52,1.69-5.24,1.77-5.51l0-.06c.51-2.06.87-3.66,1.12-4.9q.4-2.2.58-4.26C406,33.15,397.54,44.45,397.54,44.45Z"/><path class="cls-76" d="M359.17,174.79l0-.11c-.5,2.44-1.08,4.8-1.77,7A44.84,44.84,0,0,0,359.17,174.79Z"/><path class="cls-77" d="M356.27,185l.15-.42-.17.46Z"/><path class="cls-2" d="M350,170.2c-.07.46-.14.94-.22,1.4-1.52,8.91-4,15.37-5.28,15.63l0,0s3.11,14.06,11.82-2.2l.17-.46c.19-.55.55-1.6,1-2.86.68-2.23,1.27-4.59,1.77-7C358.91,173.4,356.27,160,350,170.2Z"/><path class="cls-78" d="M350,170.2c-.07.46-.14.94-.22,1.4-1.52,8.91-4,15.37-5.28,15.63l0,0s3.11,14.06,11.82-2.2l.17-.46c.19-.55.55-1.6,1-2.86.68-2.23,1.27-4.59,1.77-7C358.91,173.4,356.27,160,350,170.2Z"/><path class="cls-79" d="M373,122.17l0,0,.1,0Z"/><path class="cls-2" d="M398.14,109.56c-5.69,4.93-17.25,14.06-25.08,12.61l-.1,0c-.6.47-8.25,6.51-1.45,8.38a48.49,48.49,0,0,0,18.82-8.68S401.89,106.31,398.14,109.56Z"/><path class="cls-80" d="M398.14,109.56c-5.69,4.93-17.25,14.06-25.08,12.61l-.1,0c-.6.47-8.25,6.51-1.45,8.38a48.49,48.49,0,0,0,18.82-8.68S401.89,106.31,398.14,109.56Z"/><path class="cls-2" d="M338.44,118.46,336,119.89s4.86-1.71,7.91,0l1.84-4.89S344.36,117,338.44,118.46Z"/><path class="cls-81" d="M338.44,118.46,336,119.89s4.86-1.71,7.91,0l1.84-4.89S344.36,117,338.44,118.46Z"/><path class="cls-82" d="M426.15,136.73c.75-.75,1.44-1.49,2.09-2.23C428,134.81,427.16,135.68,426.15,136.73Z"/><path class="cls-83" d="M428.73,140.22l-1.44,1.57C428,141.09,428.51,140.49,428.73,140.22Z"/><path class="cls-84" d="M419.71,142.23l1.06-.78A6,6,0,0,0,419.71,142.23Z"/><path class="cls-85" d="M419.68,149.2a39.62,39.62,0,0,0,4.31-4C422.59,146.62,421.16,148,419.68,149.2Z"/><path class="cls-2" d="M429.18,133.9l.07-.4h0l-.89.86-.12.13c-.65.73-1.34,1.48-2.09,2.23-1.74,1.8-4.08,4.08-5.31,4.69l-.06,0-1.06.78c-2.68,2.36-7,8.39-1.17,7.89l1.14-.93c1.48-1.24,2.91-2.58,4.31-4l.05-.06s1.85-1.9,3.25-3.38l1.44-1.57,0,0A32,32,0,0,1,429.18,133.9Z"/><path class="cls-86" d="M429.18,133.9l.07-.4h0l-.89.86-.12.13c-.65.73-1.34,1.48-2.09,2.23-1.74,1.8-4.08,4.08-5.31,4.69l-.06,0-1.06.78c-2.68,2.36-7,8.39-1.17,7.89l1.14-.93c1.48-1.24,2.91-2.58,4.31-4l.05-.06s1.85-1.9,3.25-3.38l1.44-1.57,0,0A32,32,0,0,1,429.18,133.9Z"/><path class="cls-87" d="M465.1,107.67a1.84,1.84,0,0,1,1.34.65A1.69,1.69,0,0,0,465.1,107.67Z"/><path class="cls-88" d="M464.64,107.65h0Z"/><path class="cls-89" d="M464,107.69l-.34,0Z"/><path class="cls-90" d="M463.64,107.75a9.07,9.07,0,0,0-1.69.45A10.76,10.76,0,0,1,463.64,107.75Z"/><path class="cls-91" d="M461.55,108.36a13.46,13.46,0,0,0-1.64.82A17.1,17.1,0,0,1,461.55,108.36Z"/><path class="cls-92" d="M459.8,109.25l-.49.3Z"/><path class="cls-93" d="M447.11,124.73a45.35,45.35,0,0,0-2.34,5.72A56.48,56.48,0,0,1,447.11,124.73Z"/><path class="cls-2" d="M458.58,107.42s-8.92,5.42-13,11.83a49.26,49.26,0,0,0-3.88,7l3,4.41.07-.22a45.35,45.35,0,0,1,2.34-5.72,39.47,39.47,0,0,1,5.56-8.9,34.73,34.73,0,0,1,4.71-4.87,14.74,14.74,0,0,1,1.94-1.42l.49-.3.11-.06a13.46,13.46,0,0,1,1.64-.82l.11,0,.29-.11a9.07,9.07,0,0,1,1.69-.45h.07l.34,0a5.62,5.62,0,0,1,.59,0h.26l.2,0a1.69,1.69,0,0,1,1.34.65l.08.09S465.25,104,458.58,107.42Z"/><path class="cls-94" d="M458.58,107.42s-8.92,5.42-13,11.83a49.26,49.26,0,0,0-3.88,7l3,4.41.07-.22a45.35,45.35,0,0,1,2.34-5.72,39.47,39.47,0,0,1,5.56-8.9,38.74,38.74,0,0,1,4.71-4.87s.79-.6,1.94-1.42c.16-.11.33-.2.49-.3l.11-.06a13.46,13.46,0,0,1,1.64-.82l.11,0,.29-.11a9.07,9.07,0,0,1,1.69-.45h.07l.34,0a5.62,5.62,0,0,1,.59,0h.26l.2,0a1.69,1.69,0,0,1,1.34.65s.08.14.1.18S465.25,104,458.58,107.42Z"/></svg>